ISO-10303-21;
HEADER;
FILE_DESCRIPTION(('STEP AP203'),
    '1');
FILE_NAME('AEH-W4G1',
    '2026-09-07T08:02:22',
    (''),
    (''),
    'C3D Converter',
    'C3D Toolkit',
    '');
/**/
FILE_SCHEMA(('CONFIG_CONTROL_DESIGN'));
ENDSEC;

DATA;
#1=PRODUCT_DEFINITION('','UNSPECIFIED',#31,#34);
#2=SHAPE_DEFINITION_REPRESENTATION(#29,#3);
#3=SHAPE_REPRESENTATION('NONE',(#4),#8);
#4=AXIS2_PLACEMENT_3D('',#5,#6,#7);
#5=CARTESIAN_POINT('',(0.,0.,0.));
#6=DIRECTION('',(0.,0.,1.));
#7=DIRECTION('',(1.,0.,0.));
#8=(GEOMETRIC_REPRESENTATION_CONTEXT(3)GLOBAL_UNCERTAINTY_ASSIGNED_CONTEXT((#10))
GLOBAL_UNIT_ASSIGNED_CONTEXT((#9,#11,#12))REPRESENTATION_CONTEXT('NONE','NONE'));
#9=(LENGTH_UNIT()NAMED_UNIT(*)SI_UNIT(.MILLI.,.METRE.));
#10=UNCERTAINTY_MEASURE_WITH_UNIT(LENGTH_MEASURE(1.E-5),#9,'NONE','NONE');
#11=(NAMED_UNIT(*)PLANE_ANGLE_UNIT()SI_UNIT($,.RADIAN.));
#12=(NAMED_UNIT(*)SI_UNIT($,.STERADIAN.)SOLID_ANGLE_UNIT());
#13=MANIFOLD_SOLID_BREP('',#14);
#14=CLOSED_SHELL('',(#56,#57,#58,#59,#60,#61,#62,#63,#64,#65,#66,#67,#68,#69,#78,
#79,#80,#81,#82,#83,#84,#85,#86,#87,#88,#89,#90,#91,#92,#93,#94,#95,#96,#97,#98,
#107,#108,#109,#110,#111,#120,#129,#130,#131,#132,#133,#134,#135,#136,#137,#138,
#139,#140,#141,#142,#143,#144,#145));
#15=COLOUR_RGB('',0.564705882352941,0.564705882352941,0.564705882352941);
#16=FILL_AREA_STYLE_COLOUR('',#15);
#17=FILL_AREA_STYLE($,(#16));
#18=SURFACE_STYLE_FILL_AREA(#17);
#19=SURFACE_SIDE_STYLE('',(#18));
#20=SURFACE_STYLE_USAGE(.BOTH.,#19);
#21=PRESENTATION_STYLE_ASSIGNMENT((#20));
#22=MECHANICAL_DESIGN_GEOMETRIC_PRESENTATION_REPRESENTATION('NONE',(#23,#77,#106,
#119,#128,#151),#8);
#23=STYLED_ITEM('',(#21),#13);
#24=ADVANCED_BREP_SHAPE_REPRESENTATION('NONE',(#13),#8);
#25=SHAPE_REPRESENTATION_RELATIONSHIP('','',#3,#24);
#26=GEOMETRIC_CURVE_SET('',(#146));
#27=GEOMETRICALLY_BOUNDED_WIREFRAME_SHAPE_REPRESENTATION('NONE',(#26),#8);
#28=SHAPE_REPRESENTATION_RELATIONSHIP('','',#3,#27);
#29=PRODUCT_DEFINITION_SHAPE('NONE','NONE',#1);
#30=MECHANICAL_CONTEXT('NONE',#35,'mechanical');
#31=PRODUCT_DEFINITION_FORMATION_WITH_SPECIFIED_SOURCE('ANY','UNSPECIFIED',#32,.NOT_KNOWN.);
#32=PRODUCT('','\X2\0414043504420430043B044C\X0\','NONE',(#30));
#33=PRODUCT_RELATED_PRODUCT_CATEGORY('detail','',(#32));
#34=DESIGN_CONTEXT('detailed design',#35,'design');
#35=APPLICATION_CONTEXT('configuration controlled 3d designs of mechanical parts and assemblies');
#36=APPLICATION_PROTOCOL_DEFINITION('international standard','config_control_design',
1994,#35);
#37=CC_DESIGN_DATE_AND_TIME_ASSIGNMENT(#38,#42,(#1));
#38=DATE_AND_TIME(#39,#40);
#39=CALENDAR_DATE(0,1,1);
#40=LOCAL_TIME(0,0,0.,#41);
#41=COORDINATED_UNIVERSAL_TIME_OFFSET(0,0,.AHEAD.);
#42=DATE_TIME_ROLE('creation_date');
#43=CC_DESIGN_APPROVAL(#44,(#1));
#44=APPROVAL(#45,'UNSPECIFIED');
#45=APPROVAL_STATUS('not_yet_approved');
#46=APPROVAL_DATE_TIME(#47,#44);
#47=DATE_AND_TIME(#48,#49);
#48=CALENDAR_DATE(0,1,1);
#49=LOCAL_TIME(0,0,0.,#50);
#50=COORDINATED_UNIVERSAL_TIME_OFFSET(0,0,.AHEAD.);
#51=PERSON('UNSPECIFIED','UNSPECIFIED','UNSPECIFIED',('UNSPECIFIED'),('UNSPECIFIED'),
('UNSPECIFIED'));
#52=ORGANIZATION('UNSPECIFIED','UNSPECIFIED','UNSPECIFIED');
#53=PERSON_AND_ORGANIZATION(#51,#52);
#54=PERSON_AND_ORGANIZATION_ROLE('creator');
#55=CC_DESIGN_PERSON_AND_ORGANIZATION_ASSIGNMENT(#53,#54,(#31,#1));
#56=ADVANCED_FACE('',(#152,#154),#156,.T.);
#57=ADVANCED_FACE('',(#161),#163,.T.);
#58=ADVANCED_FACE('',(#168),#170,.T.);
#59=ADVANCED_FACE('',(#175),#177,.T.);
#60=ADVANCED_FACE('',(#182),#184,.T.);
#61=ADVANCED_FACE('',(#189),#191,.T.);
#62=ADVANCED_FACE('',(#196),#198,.T.);
#63=ADVANCED_FACE('',(#203),#205,.T.);
#64=ADVANCED_FACE('',(#210),#212,.T.);
#65=ADVANCED_FACE('',(#217),#219,.T.);
#66=ADVANCED_FACE('',(#224),#226,.T.);
#67=ADVANCED_FACE('',(#231),#233,.T.);
#68=ADVANCED_FACE('',(#238),#240,.T.);
#69=ADVANCED_FACE('',(#245),#247,.F.);
#70=COLOUR_RGB('',0.8,0.,0.);
#71=FILL_AREA_STYLE_COLOUR('',#70);
#72=FILL_AREA_STYLE($,(#71));
#73=SURFACE_STYLE_FILL_AREA(#72);
#74=SURFACE_SIDE_STYLE('',(#73));
#75=SURFACE_STYLE_USAGE(.BOTH.,#74);
#76=PRESENTATION_STYLE_ASSIGNMENT((#75));
#77=STYLED_ITEM('',(#76),#69);
#78=ADVANCED_FACE('',(#252),#254,.T.);
#79=ADVANCED_FACE('',(#259),#261,.T.);
#80=ADVANCED_FACE('',(#266),#268,.T.);
#81=ADVANCED_FACE('',(#273),#275,.T.);
#82=ADVANCED_FACE('',(#280),#282,.T.);
#83=ADVANCED_FACE('',(#287),#289,.T.);
#84=ADVANCED_FACE('',(#294),#296,.T.);
#85=ADVANCED_FACE('',(#301),#303,.T.);
#86=ADVANCED_FACE('',(#308),#310,.T.);
#87=ADVANCED_FACE('',(#315),#317,.T.);
#88=ADVANCED_FACE('',(#322),#324,.T.);
#89=ADVANCED_FACE('',(#329),#331,.T.);
#90=ADVANCED_FACE('',(#336),#338,.T.);
#91=ADVANCED_FACE('',(#343),#345,.T.);
#92=ADVANCED_FACE('',(#350),#352,.T.);
#93=ADVANCED_FACE('',(#357),#359,.T.);
#94=ADVANCED_FACE('',(#364),#366,.T.);
#95=ADVANCED_FACE('',(#371),#373,.F.);
#96=ADVANCED_FACE('',(#378),#380,.T.);
#97=ADVANCED_FACE('',(#385),#387,.T.);
#98=ADVANCED_FACE('',(#392),#394,.F.);
#99=COLOUR_RGB('',1.,0.,0.);
#100=FILL_AREA_STYLE_COLOUR('',#99);
#101=FILL_AREA_STYLE($,(#100));
#102=SURFACE_STYLE_FILL_AREA(#101);
#103=SURFACE_SIDE_STYLE('',(#102));
#104=SURFACE_STYLE_USAGE(.BOTH.,#103);
#105=PRESENTATION_STYLE_ASSIGNMENT((#104));
#106=STYLED_ITEM('',(#105),#98);
#107=ADVANCED_FACE('',(#399),#401,.T.);
#108=ADVANCED_FACE('',(#406),#408,.T.);
#109=ADVANCED_FACE('',(#413),#415,.T.);
#110=ADVANCED_FACE('',(#420),#422,.T.);
#111=ADVANCED_FACE('',(#427),#429,.T.);
#112=COLOUR_RGB('',1.,0.,0.);
#113=FILL_AREA_STYLE_COLOUR('',#112);
#114=FILL_AREA_STYLE($,(#113));
#115=SURFACE_STYLE_FILL_AREA(#114);
#116=SURFACE_SIDE_STYLE('',(#115));
#117=SURFACE_STYLE_USAGE(.BOTH.,#116);
#118=PRESENTATION_STYLE_ASSIGNMENT((#117));
#119=STYLED_ITEM('',(#118),#111);
#120=ADVANCED_FACE('',(#434),#436,.T.);
#121=COLOUR_RGB('',1.,0.,0.);
#122=FILL_AREA_STYLE_COLOUR('',#121);
#123=FILL_AREA_STYLE($,(#122));
#124=SURFACE_STYLE_FILL_AREA(#123);
#125=SURFACE_SIDE_STYLE('',(#124));
#126=SURFACE_STYLE_USAGE(.BOTH.,#125);
#127=PRESENTATION_STYLE_ASSIGNMENT((#126));
#128=STYLED_ITEM('',(#127),#120);
#129=ADVANCED_FACE('',(#441),#443,.T.);
#130=ADVANCED_FACE('',(#448),#450,.T.);
#131=ADVANCED_FACE('',(#455),#457,.T.);
#132=ADVANCED_FACE('',(#462),#464,.T.);
#133=ADVANCED_FACE('',(#469),#471,.T.);
#134=ADVANCED_FACE('',(#476),#478,.F.);
#135=ADVANCED_FACE('',(#483),#485,.T.);
#136=ADVANCED_FACE('',(#498),#500,.F.);
#137=ADVANCED_FACE('',(#505),#507,.T.);
#138=ADVANCED_FACE('',(#512),#514,.T.);
#139=ADVANCED_FACE('',(#519),#521,.T.);
#140=ADVANCED_FACE('',(#526),#528,.F.);
#141=ADVANCED_FACE('',(#541),#543,.T.);
#142=ADVANCED_FACE('',(#556),#558,.T.);
#143=ADVANCED_FACE('',(#563),#565,.T.);
#144=ADVANCED_FACE('',(#570),#572,.T.);
#145=ADVANCED_FACE('',(#577),#579,.T.);
#146=COMPOSITE_CURVE('',(#584),.F.);
#147=COLOUR_RGB('',0.,0.,1.);
#148=PRESENTATION_STYLE_ASSIGNMENT((#149));
#149=CURVE_STYLE('',#150,POSITIVE_LENGTH_MEASURE(0.1),#147);
#150=PRE_DEFINED_CURVE_FONT('continuous');
#151=STYLED_ITEM('',(#148),#146);
#152=FACE_BOUND('',#153,.T.);
#153=EDGE_LOOP('',(#585,#586,#587,#588,#589,#590,#591,#592,#593,#594,#595,#596,#597,
#598,#599));
#154=FACE_BOUND('',#155,.T.);
#155=EDGE_LOOP('',(#600,#601,#602,#603));
#156=PLANE('',#157);
#157=AXIS2_PLACEMENT_3D('',#158,#159,#160);
#158=CARTESIAN_POINT('',(0.,1.,6.12323399573677E-17));
#159=DIRECTION('',(0.,1.,6.12323399573677E-17));
#160=DIRECTION('',(6.12323399573677E-17,6.12323399573677E-17,-1.));
#161=FACE_BOUND('',#162,.T.);
#162=EDGE_LOOP('',(#604,#605,#606,#607));
#163=PLANE('',#164);
#164=AXIS2_PLACEMENT_3D('',#165,#166,#167);
#165=CARTESIAN_POINT('',(-16.7415696232239,1.,-13.0320512699031));
#166=DIRECTION('',(1.,0.,0.));
#167=DIRECTION('',(0.,6.34413156928661E-17,-1.));
#168=FACE_BOUND('',#169,.T.);
#169=EDGE_LOOP('',(#608,#609,#610,#611));
#170=PLANE('',#171);
#171=AXIS2_PLACEMENT_3D('',#172,#173,#174);
#172=CARTESIAN_POINT('',(-20.0212049070162,1.,-13.0320512699031));
#173=DIRECTION('',(0.,0.,1.));
#174=DIRECTION('',(1.,0.,0.));
#175=FACE_BOUND('',#176,.T.);
#176=EDGE_LOOP('',(#612,#613,#614,#615));
#177=PLANE('',#178);
#178=AXIS2_PLACEMENT_3D('',#179,#180,#181);
#179=CARTESIAN_POINT('',(-20.0212049070162,1.,-20.0320512699031));
#180=DIRECTION('',(-1.,0.,0.));
#181=DIRECTION('',(0.,-6.34413156928661E-17,1.));
#182=FACE_BOUND('',#183,.T.);
#183=EDGE_LOOP('',(#616,#617,#618,#619));
#184=PLANE('',#185);
#185=AXIS2_PLACEMENT_3D('',#186,#187,#188);
#186=CARTESIAN_POINT('',(-16.7415696232239,1.,-20.0320512699031));
#187=DIRECTION('',(0.,0.,-1.));
#188=DIRECTION('',(-1.,0.,0.));
#189=FACE_BOUND('',#190,.T.);
#190=EDGE_LOOP('',(#620,#621,#622,#623,#624));
#191=PLANE('',#192);
#192=AXIS2_PLACEMENT_3D('',#193,#194,#195);
#193=CARTESIAN_POINT('',(-5.,1.,-49.));
#194=DIRECTION('',(-1.,0.,0.));
#195=DIRECTION('',(0.,-1.11022302462516E-16,1.));
#196=FACE_BOUND('',#197,.T.);
#197=EDGE_LOOP('',(#625,#626,#627,#628));
#198=PLANE('',#199);
#199=AXIS2_PLACEMENT_3D('',#200,#201,#202);
#200=CARTESIAN_POINT('',(-28.,1.,-49.));
#201=DIRECTION('',(0.,0.,1.));
#202=DIRECTION('',(1.,0.,0.));
#203=FACE_BOUND('',#204,.T.);
#204=EDGE_LOOP('',(#629,#630,#631,#632,#633));
#205=PLANE('',#206);
#206=AXIS2_PLACEMENT_3D('',#207,#208,#209);
#207=CARTESIAN_POINT('',(-24.,1.,-47.));
#208=DIRECTION('',(1.,0.,0.));
#209=DIRECTION('',(0.,1.11022302462516E-16,-1.));
#210=FACE_BOUND('',#211,.T.);
#211=EDGE_LOOP('',(#634,#635,#636,#637,#638));
#212=PLANE('',#213);
#213=AXIS2_PLACEMENT_3D('',#214,#215,#216);
#214=CARTESIAN_POINT('',(-28.,1.,-47.));
#215=DIRECTION('',(0.,0.,1.));
#216=DIRECTION('',(1.,0.,0.));
#217=FACE_BOUND('',#218,.T.);
#218=EDGE_LOOP('',(#639,#640,#641,#642));
#219=PLANE('',#220);
#220=AXIS2_PLACEMENT_3D('',#221,#222,#223);
#221=CARTESIAN_POINT('',(-28.,1.,-1.00000000000001));
#222=DIRECTION('',(1.,1.3684555315672E-48,1.48029736616688E-16));
#223=DIRECTION('',(1.48029736616688E-16,6.47630097698008E-17,-1.));
#224=FACE_BOUND('',#225,.T.);
#225=EDGE_LOOP('',(#643,#644,#645,#646,#647));
#226=PLANE('',#227);
#227=AXIS2_PLACEMENT_3D('',#228,#229,#230);
#228=CARTESIAN_POINT('',(-26.,1.,-3.00000000000001));
#229=DIRECTION('',(0.,4.93432455388958E-17,-1.));
#230=DIRECTION('',(-1.,0.,0.));
#231=FACE_BOUND('',#232,.T.);
#232=EDGE_LOOP('',(#648,#649,#650,#651,#652));
#233=PLANE('',#234);
#234=AXIS2_PLACEMENT_3D('',#235,#236,#237);
#235=CARTESIAN_POINT('',(-26.,1.,-1.00000000000001));
#236=DIRECTION('',(1.,0.,0.));
#237=DIRECTION('',(0.,1.11022302462516E-16,-1.));
#238=FACE_BOUND('',#239,.T.);
#239=EDGE_LOOP('',(#653,#654,#655,#656));
#240=PLANE('',#241);
#241=AXIS2_PLACEMENT_3D('',#242,#243,#244);
#242=CARTESIAN_POINT('',(-1.,1.,-1.));
#243=DIRECTION('',(2.63163976207445E-16,0.,-1.));
#244=DIRECTION('',(-1.,0.,-2.63163976207445E-16));
#245=FACE_BOUND('',#246,.T.);
#246=EDGE_LOOP('',(#657,#658,#659,#660,#661,#662));
#247=CYLINDRICAL_SURFACE('',#248,4.);
#248=AXIS2_PLACEMENT_3D('',#249,#250,#251);
#249=CARTESIAN_POINT('',(-20.984664740682,6.5,-1.59296568590499));
#250=DIRECTION('',(1.22464679914735E-16,-1.,-6.12323399573677E-17));
#251=DIRECTION('',(-6.12323399573677E-17,-6.12323399573677E-17,1.));
#252=FACE_BOUND('',#253,.T.);
#253=EDGE_LOOP('',(#663,#664,#665,#666,#667,#668));
#254=CYLINDRICAL_SURFACE('',#255,3.99899142381065);
#255=AXIS2_PLACEMENT_3D('',#256,#257,#258);
#256=CARTESIAN_POINT('',(-20.9831268836673,6.5,-1.59397455779444));
#257=DIRECTION('',(1.22464679914735E-16,-1.,-6.12323399573677E-17));
#258=DIRECTION('',(-0.917127422713859,-1.36722568307702E-16,0.398594142588967));
#259=FACE_BOUND('',#260,.T.);
#260=EDGE_LOOP('',(#669,#670,#671,#672,#673,#674));
#261=PLANE('',#262);
#262=AXIS2_PLACEMENT_3D('',#263,#264,#265);
#263=CARTESIAN_POINT('',(-1.,1.,-1.));
#264=DIRECTION('',(2.63163976207445E-16,0.,-1.));
#265=DIRECTION('',(-1.,0.,-2.63163976207445E-16));
#266=FACE_BOUND('',#267,.T.);
#267=EDGE_LOOP('',(#675,#676,#677,#678,#679));
#268=PLANE('',#269);
#269=AXIS2_PLACEMENT_3D('',#270,#271,#272);
#270=CARTESIAN_POINT('',(-2.99999999999999,1.,-3.));
#271=DIRECTION('',(-1.,0.,0.));
#272=DIRECTION('',(0.,-1.11022302462516E-16,1.));
#273=FACE_BOUND('',#274,.T.);
#274=EDGE_LOOP('',(#680,#681,#682,#683,#684));
#275=PLANE('',#276);
#276=AXIS2_PLACEMENT_3D('',#277,#278,#279);
#277=CARTESIAN_POINT('',(-1.,1.,-3.));
#278=DIRECTION('',(0.,4.93432455388958E-17,-1.));
#279=DIRECTION('',(-1.,0.,0.));
#280=FACE_BOUND('',#281,.T.);
#281=EDGE_LOOP('',(#685,#686,#687,#688));
#282=PLANE('',#283);
#283=AXIS2_PLACEMENT_3D('',#284,#285,#286);
#284=CARTESIAN_POINT('',(-0.999999999999997,1.,-49.));
#285=DIRECTION('',(-1.,0.,-5.55111512312578E-17));
#286=DIRECTION('',(-5.55111512312578E-17,-6.47630097698008E-17,1.));
#287=FACE_BOUND('',#288,.T.);
#288=EDGE_LOOP('',(#689,#690,#691,#692,#693));
#289=PLANE('',#290);
#290=AXIS2_PLACEMENT_3D('',#291,#292,#293);
#291=CARTESIAN_POINT('',(-5.,1.,-47.));
#292=DIRECTION('',(0.,0.,1.));
#293=DIRECTION('',(1.,0.,0.));
#294=FACE_BOUND('',#295,.T.);
#295=EDGE_LOOP('',(#694,#695,#696,#697));
#296=PLANE('',#297);
#297=AXIS2_PLACEMENT_3D('',#298,#299,#300);
#298=CARTESIAN_POINT('',(0.,9.,5.51091059616309E-16));
#299=DIRECTION('',(0.,1.,6.12323399573677E-17));
#300=DIRECTION('',(6.12323399573677E-17,-6.12323399573677E-17,1.));
#301=FACE_BOUND('',#302,.T.);
#302=EDGE_LOOP('',(#698,#699,#700,#701));
#303=PLANE('',#304);
#304=AXIS2_PLACEMENT_3D('',#305,#306,#307);
#305=CARTESIAN_POINT('',(0.,10.,6.12323399573677E-16));
#306=DIRECTION('',(0.,1.,6.12323399573677E-17));
#307=DIRECTION('',(6.12323399573677E-17,-6.12323399573677E-17,1.));
#308=FACE_BOUND('',#309,.T.);
#309=EDGE_LOOP('',(#702,#703,#704,#705));
#310=PLANE('',#311);
#311=AXIS2_PLACEMENT_3D('',#312,#313,#314);
#312=CARTESIAN_POINT('',(-0.999999999999997,1.,-49.));
#313=DIRECTION('',(0.,0.,-1.));
#314=DIRECTION('',(-1.,0.,0.));
#315=FACE_BOUND('',#316,.T.);
#316=EDGE_LOOP('',(#706,#707,#708,#709,#710,#711,#712,#713,#714,#715,#716,#717,#718,
#719,#720,#721,#722,#723,#724,#725,#726,#727,#728,#729,#730,#731,#732));
#317=PLANE('',#318);
#318=AXIS2_PLACEMENT_3D('',#319,#320,#321);
#319=CARTESIAN_POINT('',(2.83957239294335E-15,6.5,-50.));
#320=DIRECTION('',(0.,1.,6.21724893790088E-17));
#321=DIRECTION('',(-1.,0.,0.));
#322=FACE_BOUND('',#323,.T.);
#323=EDGE_LOOP('',(#733,#734,#735,#736));
#324=PLANE('',#325);
#325=AXIS2_PLACEMENT_3D('',#326,#327,#328);
#326=CARTESIAN_POINT('',(-24.,1.,-49.));
#327=DIRECTION('',(0.,0.,-1.));
#328=DIRECTION('',(-1.,0.,0.));
#329=FACE_BOUND('',#330,.T.);
#330=EDGE_LOOP('',(#737,#738,#739,#740));
#331=PLANE('',#332);
#332=AXIS2_PLACEMENT_3D('',#333,#334,#335);
#333=CARTESIAN_POINT('',(0.,10.,6.12323399573677E-16));
#334=DIRECTION('',(0.,1.,6.12323399573677E-17));
#335=DIRECTION('',(6.12323399573677E-17,-6.12323399573677E-17,1.));
#336=FACE_BOUND('',#337,.T.);
#337=EDGE_LOOP('',(#741,#742,#743,#744));
#338=PLANE('',#339);
#339=AXIS2_PLACEMENT_3D('',#340,#341,#342);
#340=CARTESIAN_POINT('',(-28.,1.,-49.));
#341=DIRECTION('',(-1.,0.,0.));
#342=DIRECTION('',(0.,-1.11022302462516E-16,1.));
#343=FACE_BOUND('',#344,.T.);
#344=EDGE_LOOP('',(#745,#746,#747,#748));
#345=PLANE('',#346);
#346=AXIS2_PLACEMENT_3D('',#347,#348,#349);
#347=CARTESIAN_POINT('',(-28.,1.,-3.00000000000001));
#348=DIRECTION('',(-1.,0.,0.));
#349=DIRECTION('',(0.,-1.11022302462516E-16,1.));
#350=FACE_BOUND('',#351,.T.);
#351=EDGE_LOOP('',(#749,#750,#751,#752));
#352=PLANE('',#353);
#353=AXIS2_PLACEMENT_3D('',#354,#355,#356);
#354=CARTESIAN_POINT('',(0.,10.,6.12323399573677E-16));
#355=DIRECTION('',(0.,1.,6.12323399573677E-17));
#356=DIRECTION('',(6.12323399573677E-17,-6.12323399573677E-17,1.));
#357=FACE_BOUND('',#358,.T.);
#358=EDGE_LOOP('',(#753,#754,#755,#756));
#359=PLANE('',#360);
#360=AXIS2_PLACEMENT_3D('',#361,#362,#363);
#361=CARTESIAN_POINT('',(-28.,1.,-1.00000000000001));
#362=DIRECTION('',(0.,-7.40148683083438E-17,1.));
#363=DIRECTION('',(1.,0.,0.));
#364=FACE_BOUND('',#365,.T.);
#365=EDGE_LOOP('',(#757,#758,#759,#760));
#366=PLANE('',#367);
#367=AXIS2_PLACEMENT_3D('',#368,#369,#370);
#368=CARTESIAN_POINT('',(-29.,5.4381452774599E-31,-8.88116521636466E-15));
#369=DIRECTION('',(-3.06247076426368E-16,-6.12323399573676E-17,1.));
#370=DIRECTION('',(1.,-1.87522250946893E-32,3.06247076426368E-16));
#371=FACE_BOUND('',#372,.T.);
#372=EDGE_LOOP('',(#761,#762,#763,#764,#765,#766,#767,#768,#769,#770,#771,#772,#773,
#774,#775,#776));
#373=PLANE('',#374);
#374=AXIS2_PLACEMENT_3D('',#375,#376,#377);
#375=CARTESIAN_POINT('',(0.,0.,0.));
#376=DIRECTION('',(0.,1.,6.12323399573677E-17));
#377=DIRECTION('',(6.12323399573677E-17,6.12323399573677E-17,-1.));
#378=FACE_BOUND('',#379,.T.);
#379=EDGE_LOOP('',(#777,#778,#779,#780));
#380=PLANE('',#381);
#381=AXIS2_PLACEMENT_3D('',#382,#383,#384);
#382=CARTESIAN_POINT('',(-23.7335841589277,6.5,-0.398594142588967));
#383=DIRECTION('',(0.398594142588967,-5.48270143729568E-17,0.91712742271386));
#384=DIRECTION('',(-0.91712742271386,0.,0.398594142588967));
#385=FACE_BOUND('',#386,.T.);
#386=EDGE_LOOP('',(#781,#782,#783,#784,#785,#786,#787,#788,#789,#790,#791,#792));
#387=PLANE('',#388);
#388=AXIS2_PLACEMENT_3D('',#389,#390,#391);
#389=CARTESIAN_POINT('',(2.83957239294335E-15,6.5,-50.));
#390=DIRECTION('',(0.,1.,6.21724893790088E-17));
#391=DIRECTION('',(-1.,0.,0.));
#392=FACE_BOUND('',#393,.T.);
#393=EDGE_LOOP('',(#793,#794,#795,#796));
#394=CYLINDRICAL_SURFACE('',#395,2.49146188171684);
#395=AXIS2_PLACEMENT_3D('',#396,#397,#398);
#396=CARTESIAN_POINT('',(-13.5835228985635,6.5,-3.76190396553282E-15));
#397=DIRECTION('',(3.06247076426368E-16,6.12323399573676E-17,-1.));
#398=DIRECTION('',(1.,-8.3544241095519E-16,3.06247076426368E-16));
#399=FACE_BOUND('',#400,.T.);
#400=EDGE_LOOP('',(#797,#798,#799,#800));
#401=PLANE('',#402);
#402=AXIS2_PLACEMENT_3D('',#403,#404,#405);
#403=CARTESIAN_POINT('',(-2.99999999999999,1.,-1.));
#404=DIRECTION('',(1.11022302462516E-16,-7.40148683083438E-17,1.));
#405=DIRECTION('',(1.,0.,-1.11022302462516E-16));
#406=FACE_BOUND('',#407,.T.);
#407=EDGE_LOOP('',(#801,#802,#803,#804));
#408=PLANE('',#409);
#409=AXIS2_PLACEMENT_3D('',#410,#411,#412);
#410=CARTESIAN_POINT('',(0.,10.,6.12323399573677E-16));
#411=DIRECTION('',(0.,1.,6.12323399573677E-17));
#412=DIRECTION('',(6.12323399573677E-17,-6.12323399573677E-17,1.));
#413=FACE_BOUND('',#414,.T.);
#414=EDGE_LOOP('',(#805,#806,#807,#808));
#415=PLANE('',#416);
#416=AXIS2_PLACEMENT_3D('',#417,#418,#419);
#417=CARTESIAN_POINT('',(-1.,1.,-1.));
#418=DIRECTION('',(1.,9.58685127872757E-33,-1.11022302462516E-16));
#419=DIRECTION('',(-1.11022302462516E-16,1.11022302462516E-16,-1.));
#420=FACE_BOUND('',#421,.T.);
#421=EDGE_LOOP('',(#809,#810,#811,#812));
#422=PLANE('',#423);
#423=AXIS2_PLACEMENT_3D('',#424,#425,#426);
#424=CARTESIAN_POINT('',(-0.999999999999997,1.,-47.));
#425=DIRECTION('',(1.,0.,-5.55111512312578E-17));
#426=DIRECTION('',(-5.55111512312578E-17,1.11022302462516E-16,-1.));
#427=FACE_BOUND('',#428,.T.);
#428=EDGE_LOOP('',(#813,#814,#815,#816));
#429=PLANE('',#430);
#430=AXIS2_PLACEMENT_3D('',#431,#432,#433);
#431=CARTESIAN_POINT('',(-1.53123538213184E-15,-3.06161699786838E-16,5.));
#432=DIRECTION('',(-3.06247076426368E-16,-6.12323399573676E-17,1.));
#433=DIRECTION('',(-1.,1.22464679914735E-16,-3.06247076426368E-16));
#434=FACE_BOUND('',#435,.T.);
#435=EDGE_LOOP('',(#817,#818,#819,#820,#821));
#436=CYLINDRICAL_SURFACE('',#437,3.);
#437=AXIS2_PLACEMENT_3D('',#438,#439,#440);
#438=CARTESIAN_POINT('',(-13.5835228985635,6.5,-3.76190396553282E-15));
#439=DIRECTION('',(-3.06247076426368E-16,-6.12323399573676E-17,1.));
#440=DIRECTION('',(-1.,1.22464679914735E-16,-3.06247076426368E-16));
#441=FACE_BOUND('',#442,.T.);
#442=EDGE_LOOP('',(#822,#823,#824,#825,#826));
#443=PLANE('',#444);
#444=AXIS2_PLACEMENT_3D('',#445,#446,#447);
#445=CARTESIAN_POINT('',(-29.,5.4381452774599E-31,-8.88116521636466E-15));
#446=DIRECTION('',(-3.06247076426368E-16,-6.12323399573676E-17,1.));
#447=DIRECTION('',(1.,-1.87522250946893E-32,3.06247076426368E-16));
#448=FACE_BOUND('',#449,.T.);
#449=EDGE_LOOP('',(#827,#828,#829,#830));
#450=PLANE('',#451);
#451=AXIS2_PLACEMENT_3D('',#452,#453,#454);
#452=CARTESIAN_POINT('',(0.,0.,0.));
#453=DIRECTION('',(1.,-3.47747324196527E-33,5.6791447858867E-17));
#454=DIRECTION('',(5.6791447858867E-17,6.12323399573677E-17,-1.));
#455=FACE_BOUND('',#456,.T.);
#456=EDGE_LOOP('',(#831,#832,#833,#834));
#457=PLANE('',#458);
#458=AXIS2_PLACEMENT_3D('',#459,#460,#461);
#459=CARTESIAN_POINT('',(2.83957239294335E-15,3.06161699786838E-15,-50.));
#460=DIRECTION('',(0.,0.,-1.));
#461=DIRECTION('',(-1.,0.,0.));
#462=FACE_BOUND('',#463,.T.);
#463=EDGE_LOOP('',(#835,#836,#837,#838));
#464=PLANE('',#465);
#465=AXIS2_PLACEMENT_3D('',#466,#467,#468);
#466=CARTESIAN_POINT('',(-29.,3.06161699786838E-15,-50.));
#467=DIRECTION('',(-1.,0.,-7.105427357601E-17));
#468=DIRECTION('',(-7.105427357601E-17,-6.12323399573677E-17,1.));
#469=FACE_BOUND('',#470,.T.);
#470=EDGE_LOOP('',(#839,#840,#841,#842));
#471=PLANE('',#472);
#472=AXIS2_PLACEMENT_3D('',#473,#474,#475);
#473=CARTESIAN_POINT('',(-17.315542185693,6.5,-8.4338221283137E-15));
#474=DIRECTION('',(-0.398594142588965,-5.61578581318394E-17,0.91712742271386));
#475=DIRECTION('',(-0.91712742271386,-8.88178419700125E-16,-0.398594142588965));
#476=FACE_BOUND('',#477,.T.);
#477=EDGE_LOOP('',(#843,#844,#845,#846));
#478=CYLINDRICAL_SURFACE('',#479,2.99899142381065);
#479=AXIS2_PLACEMENT_3D('',#480,#481,#482);
#480=CARTESIAN_POINT('',(-20.9831268836673,6.5,-1.59397455779444));
#481=DIRECTION('',(-1.22464679914735E-16,1.,6.12323399573677E-17));
#482=DIRECTION('',(0.91712742271386,8.7908864219656E-17,0.398594142588965));
#483=FACE_BOUND('',#484,.T.);
#484=EDGE_LOOP('',(#847,#848,#849,#850));
#485=(BOUNDED_SURFACE()B_SPLINE_SURFACE(3,2,(
(#486,#487,#488),
(#489,#490,#491),
(#492,#493,#494),
(#495,#496,#497)),
.UNSPECIFIED.,.F.,.F.,.F.)B_SPLINE_SURFACE_WITH_KNOTS((4,4),
(3,3),
(-8.24078199452316E-6,1.00000863455424),
(0.,1.),
.UNSPECIFIED.)GEOMETRIC_REPRESENTATION_ITEM()RATIONAL_B_SPLINE_SURFACE((
(1.,0.796235113786059,1.),
(1.,0.7960494814235,1.),
(1.,0.767950510851783,1.),
(1.,0.707105199816584,1.)))REPRESENTATION_ITEM('')SURFACE());
#486=CARTESIAN_POINT('',(-17.315542185693,6.50001186223869,-3.97693644538229E-15));
#487=CARTESIAN_POINT('',(-16.5835228985485,6.50000952343366,0.203614394065147));
#488=CARTESIAN_POINT('',(-16.5835228985503,6.50000889667902,0.963424277013774));
#489=CARTESIAN_POINT('',(-17.315542185693,6.0201852762541,-4.00631735001589E-15));
#490=CARTESIAN_POINT('',(-16.5873962625862,6.11613319455916,0.201949258429652));
#491=CARTESIAN_POINT('',(-16.5829641876317,6.14013895717538,0.960701849228537));
#492=CARTESIAN_POINT('',(-17.315542185693,5.54035869026949,-4.03569825464948E-15));
#493=CARTESIAN_POINT('',(-16.493681947507,5.69679779637124,0.158379936902479));
#494=CARTESIAN_POINT('',(-16.5206616147234,5.78026901773517,0.996842680469673));
#495=CARTESIAN_POINT('',(-17.315542185693,5.0605321042849,-4.06507915928307E-15));
#496=CARTESIAN_POINT('',(-16.3825343892798,5.42040068782834,-4.47280229631808E-6));
#497=CARTESIAN_POINT('',(-16.3825337684385,5.42039907821376,0.999999999989711));
#498=FACE_BOUND('',#499,.T.);
#499=EDGE_LOOP('',(#851,#852,#853,#854,#855));
#500=TOROIDAL_SURFACE('',#501,4.,1.);
#501=AXIS2_PLACEMENT_3D('',#502,#503,#504);
#502=CARTESIAN_POINT('',(-13.5835228985635,6.5,0.999999999999996));
#503=DIRECTION('',(-3.06247076426368E-16,-6.12323399573676E-17,1.));
#504=DIRECTION('',(-0.877582561890372,0.479425538604203,-2.39400746337632E-16));
#505=FACE_BOUND('',#506,.T.);
#506=EDGE_LOOP('',(#856,#857,#858,#859));
#507=CYLINDRICAL_SURFACE('',#508,1.);
#508=AXIS2_PLACEMENT_3D('',#509,#510,#511);
#509=CARTESIAN_POINT('',(-28.,-4.,-1.));
#510=DIRECTION('',(0.,-1.,-6.125368411725E-17));
#511=DIRECTION('',(0.,-6.125368411725E-17,1.));
#512=FACE_BOUND('',#513,.T.);
#513=EDGE_LOOP('',(#860,#861,#862,#863));
#514=CYLINDRICAL_SURFACE('',#515,1.);
#515=AXIS2_PLACEMENT_3D('',#516,#517,#518);
#516=CARTESIAN_POINT('',(-24.9327849242059,8.5,-0.96776870464409));
#517=DIRECTION('',(0.,1.,5.28677630773884E-17));
#518=DIRECTION('',(0.398594142588966,-4.84864752958122E-17,0.91712742271386));
#519=FACE_BOUND('',#520,.T.);
#520=EDGE_LOOP('',(#864,#865,#866,#867));
#521=CYLINDRICAL_SURFACE('',#522,1.);
#522=AXIS2_PLACEMENT_3D('',#523,#524,#525);
#523=CARTESIAN_POINT('',(-17.1076300052784,9.06054453334121,-1.));
#524=DIRECTION('',(-2.72018802105155E-16,1.,6.80047005262886E-17));
#525=DIRECTION('',(-0.398594142588963,-1.70794076919284E-16,0.917127422713861));
#526=FACE_BOUND('',#527,.T.);
#527=EDGE_LOOP('',(#868,#869,#870,#871));
#528=(BOUNDED_SURFACE()B_SPLINE_SURFACE(3,2,(
(#529,#530,#531),
(#532,#533,#534),
(#535,#536,#537),
(#538,#539,#540)),
.UNSPECIFIED.,.F.,.F.,.F.)B_SPLINE_SURFACE_WITH_KNOTS((4,4),
(3,3),
(-7.63522229885361E-5,4.00007583464122),
(0.,1.),
.UNSPECIFIED.)GEOMETRIC_REPRESENTATION_ITEM()RATIONAL_B_SPLINE_SURFACE((
(1.,0.98958688488566,1.),
(1.,0.986516420763244,1.),
(1.,0.982980929808298,1.),
(1.,0.979062446185374,1.)))REPRESENTATION_ITEM('')SURFACE());
#529=CARTESIAN_POINT('',(-17.1909932928586,5.10859358983473,0.00895062607639407));
#530=CARTESIAN_POINT('',(-17.3335480476964,5.13210543323518,-0.00782555504184546));
#531=CARTESIAN_POINT('',(-17.4650350597799,5.15663361649146,-0.0649713251333464));
#532=CARTESIAN_POINT('',(-17.1746050764457,4.93931832000096,0.00282092424057445));
#533=CARTESIAN_POINT('',(-17.3406689644099,4.95667508671919,-0.0109203874735808));
#534=CARTESIAN_POINT('',(-17.4932427881232,4.97621343600975,-0.0772307288049856));
#535=CARTESIAN_POINT('',(-17.1460956690987,4.77179458806057,1.38096097103704E-5));
#536=CARTESIAN_POINT('',(-17.3338413852794,4.78099085286596,-0.00795304293446144));
#537=CARTESIAN_POINT('',(-17.5061605986557,4.79247679311578,-0.082844958066714));
#538=CARTESIAN_POINT('',(-17.1076278084179,4.60772503783794,3.10385050994455E-12));
#539=CARTESIAN_POINT('',(-17.3155411347375,4.60772447353339,4.567573735903E-7));
#540=CARTESIAN_POINT('',(-17.5062241478531,4.60772385823711,-0.0828725772799269));
#541=FACE_BOUND('',#542,.T.);
#542=EDGE_LOOP('',(#872,#873,#874,#875));
#543=(BOUNDED_SURFACE()B_SPLINE_SURFACE(3,2,(
(#544,#545,#546),
(#547,#548,#549),
(#550,#551,#552),
(#553,#554,#555)),
.UNSPECIFIED.,.F.,.F.,.F.)B_SPLINE_SURFACE_WITH_KNOTS((4,4),
(3,3),
(0.819136995635529,1.93988647395808),
(0.,1.),
.UNSPECIFIED.)GEOMETRIC_REPRESENTATION_ITEM()RATIONAL_B_SPLINE_SURFACE((
(1.,0.998799074717738,1.),
(1.,0.99836375197762,1.),
(1.,0.998751088510419,1.),
(1.,0.989586486753363,1.)))REPRESENTATION_ITEM('')SURFACE());
#544=CARTESIAN_POINT('',(-17.3682748882209,6.50000994635015,-0.0229182399631272));
#545=CARTESIAN_POINT('',(-17.3232871549313,6.50001000006636,-0.00336605284768066));
#546=CARTESIAN_POINT('',(-17.2766018220916,6.50001005352468,0.0116893071674782));
#547=CARTESIAN_POINT('',(-17.3684485924515,6.04317249016089,-0.0229937338226785));
#548=CARTESIAN_POINT('',(-17.3229847055417,6.04093659515099,-0.00323460485898318));
#549=CARTESIAN_POINT('',(-17.275725530598,6.03720992514239,0.0102109105428153));
#550=CARTESIAN_POINT('',(-17.3995770823783,5.57871772585747,-0.0365225341236694));
#551=CARTESIAN_POINT('',(-17.3285101531341,5.57233727586211,-0.0056360280319735));
#552=CARTESIAN_POINT('',(-17.2543014972668,5.571695538655,0.0210700935754144));
#553=CARTESIAN_POINT('',(-17.4650381656555,5.15661382182036,-0.0649726749826393));
#554=CARTESIAN_POINT('',(-17.3335485569024,5.13208543839641,-0.00782577634863824));
#555=CARTESIAN_POINT('',(-17.1909908920474,5.10857344177777,0.00894995114686268));
#556=FACE_BOUND('',#557,.T.);
#557=EDGE_LOOP('',(#876,#877,#878,#879));
#558=CYLINDRICAL_SURFACE('',#559,1.);
#559=AXIS2_PLACEMENT_3D('',#560,#561,#562);
#560=CARTESIAN_POINT('',(-0.999999999999998,-4.,-1.));
#561=DIRECTION('',(0.,-1.,-4.59402630879375E-17));
#562=DIRECTION('',(1.,1.02007875675131E-32,-2.22044604925032E-16));
#563=FACE_BOUND('',#564,.T.);
#564=EDGE_LOOP('',(#880,#881,#882,#883));
#565=CYLINDRICAL_SURFACE('',#566,1.);
#566=AXIS2_PLACEMENT_3D('',#567,#568,#569);
#567=CARTESIAN_POINT('',(-0.999999999999997,-4.,-49.));
#568=DIRECTION('',(0.,-1.,0.));
#569=DIRECTION('',(0.,0.,-1.));
#570=FACE_BOUND('',#571,.T.);
#571=EDGE_LOOP('',(#884,#885,#886,#887));
#572=CYLINDRICAL_SURFACE('',#573,1.);
#573=AXIS2_PLACEMENT_3D('',#574,#575,#576);
#574=CARTESIAN_POINT('',(-28.,-4.,-49.));
#575=DIRECTION('',(0.,-1.,0.));
#576=DIRECTION('',(-1.,0.,0.));
#577=FACE_BOUND('',#578,.T.);
#578=EDGE_LOOP('',(#888,#889,#890,#891,#892));
#579=CYLINDRICAL_SURFACE('',#580,1.);
#580=AXIS2_PLACEMENT_3D('',#581,#582,#583);
#581=CARTESIAN_POINT('',(-17.0340112514689,8.5,-0.964357109467493));
#582=DIRECTION('',(0.,1.,0.));
#583=DIRECTION('',(-0.987527907333002,0.,-0.157444060664422));
#584=COMPOSITE_CURVE_SEGMENT(.DISCONTINUOUS.,.T.,#893);
#585=ORIENTED_EDGE('',*,*,#894,.F.);
#586=ORIENTED_EDGE('',*,*,#895,.F.);
#587=ORIENTED_EDGE('',*,*,#896,.F.);
#588=ORIENTED_EDGE('',*,*,#897,.F.);
#589=ORIENTED_EDGE('',*,*,#898,.F.);
#590=ORIENTED_EDGE('',*,*,#899,.F.);
#591=ORIENTED_EDGE('',*,*,#900,.F.);
#592=ORIENTED_EDGE('',*,*,#901,.F.);
#593=ORIENTED_EDGE('',*,*,#902,.T.);
#594=ORIENTED_EDGE('',*,*,#903,.F.);
#595=ORIENTED_EDGE('',*,*,#904,.F.);
#596=ORIENTED_EDGE('',*,*,#905,.F.);
#597=ORIENTED_EDGE('',*,*,#906,.F.);
#598=ORIENTED_EDGE('',*,*,#907,.F.);
#599=ORIENTED_EDGE('',*,*,#908,.F.);
#600=ORIENTED_EDGE('',*,*,#909,.F.);
#601=ORIENTED_EDGE('',*,*,#910,.F.);
#602=ORIENTED_EDGE('',*,*,#911,.F.);
#603=ORIENTED_EDGE('',*,*,#912,.F.);
#604=ORIENTED_EDGE('',*,*,#910,.T.);
#605=ORIENTED_EDGE('',*,*,#913,.T.);
#606=ORIENTED_EDGE('',*,*,#914,.F.);
#607=ORIENTED_EDGE('',*,*,#915,.F.);
#608=ORIENTED_EDGE('',*,*,#911,.T.);
#609=ORIENTED_EDGE('',*,*,#915,.T.);
#610=ORIENTED_EDGE('',*,*,#916,.F.);
#611=ORIENTED_EDGE('',*,*,#917,.F.);
#612=ORIENTED_EDGE('',*,*,#912,.T.);
#613=ORIENTED_EDGE('',*,*,#917,.T.);
#614=ORIENTED_EDGE('',*,*,#918,.F.);
#615=ORIENTED_EDGE('',*,*,#919,.F.);
#616=ORIENTED_EDGE('',*,*,#909,.T.);
#617=ORIENTED_EDGE('',*,*,#919,.T.);
#618=ORIENTED_EDGE('',*,*,#920,.F.);
#619=ORIENTED_EDGE('',*,*,#913,.F.);
#620=ORIENTED_EDGE('',*,*,#921,.T.);
#621=ORIENTED_EDGE('',*,*,#894,.T.);
#622=ORIENTED_EDGE('',*,*,#922,.T.);
#623=ORIENTED_EDGE('',*,*,#923,.F.);
#624=ORIENTED_EDGE('',*,*,#924,.F.);
#625=ORIENTED_EDGE('',*,*,#921,.F.);
#626=ORIENTED_EDGE('',*,*,#925,.F.);
#627=ORIENTED_EDGE('',*,*,#926,.F.);
#628=ORIENTED_EDGE('',*,*,#895,.T.);
#629=ORIENTED_EDGE('',*,*,#926,.T.);
#630=ORIENTED_EDGE('',*,*,#927,.T.);
#631=ORIENTED_EDGE('',*,*,#928,.F.);
#632=ORIENTED_EDGE('',*,*,#929,.F.);
#633=ORIENTED_EDGE('',*,*,#896,.T.);
#634=ORIENTED_EDGE('',*,*,#930,.T.);
#635=ORIENTED_EDGE('',*,*,#897,.T.);
#636=ORIENTED_EDGE('',*,*,#929,.T.);
#637=ORIENTED_EDGE('',*,*,#931,.F.);
#638=ORIENTED_EDGE('',*,*,#932,.F.);
#639=ORIENTED_EDGE('',*,*,#933,.F.);
#640=ORIENTED_EDGE('',*,*,#898,.T.);
#641=ORIENTED_EDGE('',*,*,#930,.F.);
#642=ORIENTED_EDGE('',*,*,#934,.F.);
#643=ORIENTED_EDGE('',*,*,#933,.T.);
#644=ORIENTED_EDGE('',*,*,#935,.T.);
#645=ORIENTED_EDGE('',*,*,#936,.F.);
#646=ORIENTED_EDGE('',*,*,#937,.F.);
#647=ORIENTED_EDGE('',*,*,#899,.T.);
#648=ORIENTED_EDGE('',*,*,#938,.T.);
#649=ORIENTED_EDGE('',*,*,#900,.T.);
#650=ORIENTED_EDGE('',*,*,#937,.T.);
#651=ORIENTED_EDGE('',*,*,#939,.F.);
#652=ORIENTED_EDGE('',*,*,#940,.F.);
#653=ORIENTED_EDGE('',*,*,#938,.F.);
#654=ORIENTED_EDGE('',*,*,#941,.F.);
#655=ORIENTED_EDGE('',*,*,#942,.T.);
#656=ORIENTED_EDGE('',*,*,#901,.T.);
#657=ORIENTED_EDGE('',*,*,#943,.F.);
#658=ORIENTED_EDGE('',*,*,#902,.F.);
#659=ORIENTED_EDGE('',*,*,#942,.F.);
#660=ORIENTED_EDGE('',*,*,#944,.F.);
#661=ORIENTED_EDGE('',*,*,#945,.F.);
#662=ORIENTED_EDGE('',*,*,#946,.F.);
#663=ORIENTED_EDGE('',*,*,#903,.T.);
#664=ORIENTED_EDGE('',*,*,#943,.T.);
#665=ORIENTED_EDGE('',*,*,#947,.F.);
#666=ORIENTED_EDGE('',*,*,#948,.F.);
#667=ORIENTED_EDGE('',*,*,#949,.T.);
#668=ORIENTED_EDGE('',*,*,#950,.T.);
#669=ORIENTED_EDGE('',*,*,#951,.F.);
#670=ORIENTED_EDGE('',*,*,#952,.F.);
#671=ORIENTED_EDGE('',*,*,#904,.T.);
#672=ORIENTED_EDGE('',*,*,#950,.F.);
#673=ORIENTED_EDGE('',*,*,#953,.F.);
#674=ORIENTED_EDGE('',*,*,#954,.T.);
#675=ORIENTED_EDGE('',*,*,#952,.T.);
#676=ORIENTED_EDGE('',*,*,#955,.T.);
#677=ORIENTED_EDGE('',*,*,#956,.F.);
#678=ORIENTED_EDGE('',*,*,#957,.F.);
#679=ORIENTED_EDGE('',*,*,#905,.T.);
#680=ORIENTED_EDGE('',*,*,#958,.T.);
#681=ORIENTED_EDGE('',*,*,#906,.T.);
#682=ORIENTED_EDGE('',*,*,#957,.T.);
#683=ORIENTED_EDGE('',*,*,#959,.F.);
#684=ORIENTED_EDGE('',*,*,#960,.F.);
#685=ORIENTED_EDGE('',*,*,#961,.F.);
#686=ORIENTED_EDGE('',*,*,#907,.T.);
#687=ORIENTED_EDGE('',*,*,#958,.F.);
#688=ORIENTED_EDGE('',*,*,#962,.F.);
#689=ORIENTED_EDGE('',*,*,#961,.T.);
#690=ORIENTED_EDGE('',*,*,#963,.T.);
#691=ORIENTED_EDGE('',*,*,#964,.F.);
#692=ORIENTED_EDGE('',*,*,#922,.F.);
#693=ORIENTED_EDGE('',*,*,#908,.T.);
#694=ORIENTED_EDGE('',*,*,#920,.T.);
#695=ORIENTED_EDGE('',*,*,#918,.T.);
#696=ORIENTED_EDGE('',*,*,#916,.T.);
#697=ORIENTED_EDGE('',*,*,#914,.T.);
#698=ORIENTED_EDGE('',*,*,#965,.T.);
#699=ORIENTED_EDGE('',*,*,#966,.T.);
#700=ORIENTED_EDGE('',*,*,#923,.T.);
#701=ORIENTED_EDGE('',*,*,#964,.T.);
#702=ORIENTED_EDGE('',*,*,#967,.T.);
#703=ORIENTED_EDGE('',*,*,#924,.T.);
#704=ORIENTED_EDGE('',*,*,#966,.F.);
#705=ORIENTED_EDGE('',*,*,#968,.F.);
#706=ORIENTED_EDGE('',*,*,#969,.F.);
#707=ORIENTED_EDGE('',*,*,#970,.T.);
#708=ORIENTED_EDGE('',*,*,#971,.F.);
#709=ORIENTED_EDGE('',*,*,#972,.T.);
#710=ORIENTED_EDGE('',*,*,#944,.T.);
#711=ORIENTED_EDGE('',*,*,#941,.T.);
#712=ORIENTED_EDGE('',*,*,#973,.F.);
#713=ORIENTED_EDGE('',*,*,#974,.F.);
#714=ORIENTED_EDGE('',*,*,#934,.T.);
#715=ORIENTED_EDGE('',*,*,#975,.F.);
#716=ORIENTED_EDGE('',*,*,#976,.F.);
#717=ORIENTED_EDGE('',*,*,#925,.T.);
#718=ORIENTED_EDGE('',*,*,#967,.F.);
#719=ORIENTED_EDGE('',*,*,#977,.F.);
#720=ORIENTED_EDGE('',*,*,#962,.T.);
#721=ORIENTED_EDGE('',*,*,#978,.F.);
#722=ORIENTED_EDGE('',*,*,#979,.F.);
#723=ORIENTED_EDGE('',*,*,#951,.T.);
#724=ORIENTED_EDGE('',*,*,#980,.T.);
#725=ORIENTED_EDGE('',*,*,#981,.F.);
#726=ORIENTED_EDGE('',*,*,#982,.F.);
#727=ORIENTED_EDGE('',*,*,#983,.F.);
#728=ORIENTED_EDGE('',*,*,#984,.T.);
#729=ORIENTED_EDGE('',*,*,#985,.F.);
#730=ORIENTED_EDGE('',*,*,#986,.T.);
#731=ORIENTED_EDGE('',*,*,#987,.F.);
#732=ORIENTED_EDGE('',*,*,#988,.T.);
#733=ORIENTED_EDGE('',*,*,#976,.T.);
#734=ORIENTED_EDGE('',*,*,#989,.T.);
#735=ORIENTED_EDGE('',*,*,#990,.F.);
#736=ORIENTED_EDGE('',*,*,#927,.F.);
#737=ORIENTED_EDGE('',*,*,#931,.T.);
#738=ORIENTED_EDGE('',*,*,#928,.T.);
#739=ORIENTED_EDGE('',*,*,#990,.T.);
#740=ORIENTED_EDGE('',*,*,#991,.T.);
#741=ORIENTED_EDGE('',*,*,#975,.T.);
#742=ORIENTED_EDGE('',*,*,#932,.T.);
#743=ORIENTED_EDGE('',*,*,#991,.F.);
#744=ORIENTED_EDGE('',*,*,#989,.F.);
#745=ORIENTED_EDGE('',*,*,#974,.T.);
#746=ORIENTED_EDGE('',*,*,#992,.T.);
#747=ORIENTED_EDGE('',*,*,#993,.F.);
#748=ORIENTED_EDGE('',*,*,#935,.F.);
#749=ORIENTED_EDGE('',*,*,#993,.T.);
#750=ORIENTED_EDGE('',*,*,#994,.T.);
#751=ORIENTED_EDGE('',*,*,#939,.T.);
#752=ORIENTED_EDGE('',*,*,#936,.T.);
#753=ORIENTED_EDGE('',*,*,#973,.T.);
#754=ORIENTED_EDGE('',*,*,#940,.T.);
#755=ORIENTED_EDGE('',*,*,#994,.F.);
#756=ORIENTED_EDGE('',*,*,#992,.F.);
#757=ORIENTED_EDGE('',*,*,#995,.F.);
#758=ORIENTED_EDGE('',*,*,#996,.T.);
#759=ORIENTED_EDGE('',*,*,#945,.T.);
#760=ORIENTED_EDGE('',*,*,#972,.F.);
#761=ORIENTED_EDGE('',*,*,#997,.F.);
#762=ORIENTED_EDGE('',*,*,#998,.T.);
#763=ORIENTED_EDGE('',*,*,#999,.F.);
#764=ORIENTED_EDGE('',*,*,#1000,.T.);
#765=ORIENTED_EDGE('',*,*,#947,.T.);
#766=ORIENTED_EDGE('',*,*,#946,.T.);
#767=ORIENTED_EDGE('',*,*,#996,.F.);
#768=ORIENTED_EDGE('',*,*,#1001,.F.);
#769=ORIENTED_EDGE('',*,*,#1002,.F.);
#770=ORIENTED_EDGE('',*,*,#1003,.F.);
#771=ORIENTED_EDGE('',*,*,#1004,.F.);
#772=ORIENTED_EDGE('',*,*,#1005,.F.);
#773=ORIENTED_EDGE('',*,*,#1006,.F.);
#774=ORIENTED_EDGE('',*,*,#1007,.F.);
#775=ORIENTED_EDGE('',*,*,#1008,.F.);
#776=ORIENTED_EDGE('',*,*,#1009,.F.);
#777=ORIENTED_EDGE('',*,*,#1010,.F.);
#778=ORIENTED_EDGE('',*,*,#1011,.T.);
#779=ORIENTED_EDGE('',*,*,#948,.T.);
#780=ORIENTED_EDGE('',*,*,#1000,.F.);
#781=ORIENTED_EDGE('',*,*,#1012,.F.);
#782=ORIENTED_EDGE('',*,*,#1013,.F.);
#783=ORIENTED_EDGE('',*,*,#1014,.F.);
#784=ORIENTED_EDGE('',*,*,#1015,.F.);
#785=ORIENTED_EDGE('',*,*,#1016,.T.);
#786=ORIENTED_EDGE('',*,*,#1017,.F.);
#787=ORIENTED_EDGE('',*,*,#1018,.F.);
#788=ORIENTED_EDGE('',*,*,#953,.T.);
#789=ORIENTED_EDGE('',*,*,#949,.F.);
#790=ORIENTED_EDGE('',*,*,#1011,.F.);
#791=ORIENTED_EDGE('',*,*,#1019,.F.);
#792=ORIENTED_EDGE('',*,*,#1020,.F.);
#793=ORIENTED_EDGE('',*,*,#1018,.T.);
#794=ORIENTED_EDGE('',*,*,#1021,.F.);
#795=ORIENTED_EDGE('',*,*,#980,.F.);
#796=ORIENTED_EDGE('',*,*,#954,.F.);
#797=ORIENTED_EDGE('',*,*,#979,.T.);
#798=ORIENTED_EDGE('',*,*,#1022,.T.);
#799=ORIENTED_EDGE('',*,*,#1023,.F.);
#800=ORIENTED_EDGE('',*,*,#955,.F.);
#801=ORIENTED_EDGE('',*,*,#959,.T.);
#802=ORIENTED_EDGE('',*,*,#956,.T.);
#803=ORIENTED_EDGE('',*,*,#1023,.T.);
#804=ORIENTED_EDGE('',*,*,#1024,.T.);
#805=ORIENTED_EDGE('',*,*,#978,.T.);
#806=ORIENTED_EDGE('',*,*,#960,.T.);
#807=ORIENTED_EDGE('',*,*,#1024,.F.);
#808=ORIENTED_EDGE('',*,*,#1022,.F.);
#809=ORIENTED_EDGE('',*,*,#977,.T.);
#810=ORIENTED_EDGE('',*,*,#968,.T.);
#811=ORIENTED_EDGE('',*,*,#965,.F.);
#812=ORIENTED_EDGE('',*,*,#963,.F.);
#813=ORIENTED_EDGE('',*,*,#1021,.T.);
#814=ORIENTED_EDGE('',*,*,#1017,.T.);
#815=ORIENTED_EDGE('',*,*,#1025,.T.);
#816=ORIENTED_EDGE('',*,*,#981,.T.);
#817=ORIENTED_EDGE('',*,*,#1026,.T.);
#818=ORIENTED_EDGE('',*,*,#1027,.T.);
#819=ORIENTED_EDGE('',*,*,#982,.T.);
#820=ORIENTED_EDGE('',*,*,#1025,.F.);
#821=ORIENTED_EDGE('',*,*,#1016,.F.);
#822=ORIENTED_EDGE('',*,*,#1028,.T.);
#823=ORIENTED_EDGE('',*,*,#984,.F.);
#824=ORIENTED_EDGE('',*,*,#1029,.F.);
#825=ORIENTED_EDGE('',*,*,#1030,.F.);
#826=ORIENTED_EDGE('',*,*,#1008,.T.);
#827=ORIENTED_EDGE('',*,*,#1031,.T.);
#828=ORIENTED_EDGE('',*,*,#986,.F.);
#829=ORIENTED_EDGE('',*,*,#1032,.F.);
#830=ORIENTED_EDGE('',*,*,#1006,.T.);
#831=ORIENTED_EDGE('',*,*,#1033,.T.);
#832=ORIENTED_EDGE('',*,*,#988,.F.);
#833=ORIENTED_EDGE('',*,*,#1034,.F.);
#834=ORIENTED_EDGE('',*,*,#1004,.T.);
#835=ORIENTED_EDGE('',*,*,#1035,.F.);
#836=ORIENTED_EDGE('',*,*,#1002,.T.);
#837=ORIENTED_EDGE('',*,*,#1036,.T.);
#838=ORIENTED_EDGE('',*,*,#970,.F.);
#839=ORIENTED_EDGE('',*,*,#1037,.T.);
#840=ORIENTED_EDGE('',*,*,#1038,.T.);
#841=ORIENTED_EDGE('',*,*,#1039,.F.);
#842=ORIENTED_EDGE('',*,*,#1013,.T.);
#843=ORIENTED_EDGE('',*,*,#1040,.F.);
#844=ORIENTED_EDGE('',*,*,#1020,.T.);
#845=ORIENTED_EDGE('',*,*,#1041,.T.);
#846=ORIENTED_EDGE('',*,*,#998,.F.);
#847=ORIENTED_EDGE('',*,*,#1042,.T.);
#848=ORIENTED_EDGE('',*,*,#1043,.T.);
#849=ORIENTED_EDGE('',*,*,#1026,.F.);
#850=ORIENTED_EDGE('',*,*,#1015,.T.);
#851=ORIENTED_EDGE('',*,*,#1044,.F.);
#852=ORIENTED_EDGE('',*,*,#1029,.T.);
#853=ORIENTED_EDGE('',*,*,#983,.T.);
#854=ORIENTED_EDGE('',*,*,#1027,.F.);
#855=ORIENTED_EDGE('',*,*,#1043,.F.);
#856=ORIENTED_EDGE('',*,*,#1036,.F.);
#857=ORIENTED_EDGE('',*,*,#1001,.T.);
#858=ORIENTED_EDGE('',*,*,#995,.T.);
#859=ORIENTED_EDGE('',*,*,#971,.T.);
#860=ORIENTED_EDGE('',*,*,#1041,.F.);
#861=ORIENTED_EDGE('',*,*,#1019,.T.);
#862=ORIENTED_EDGE('',*,*,#1010,.T.);
#863=ORIENTED_EDGE('',*,*,#999,.T.);
#864=ORIENTED_EDGE('',*,*,#1030,.T.);
#865=ORIENTED_EDGE('',*,*,#1045,.T.);
#866=ORIENTED_EDGE('',*,*,#1046,.F.);
#867=ORIENTED_EDGE('',*,*,#1009,.T.);
#868=ORIENTED_EDGE('',*,*,#1044,.T.);
#869=ORIENTED_EDGE('',*,*,#1047,.T.);
#870=ORIENTED_EDGE('',*,*,#1038,.F.);
#871=ORIENTED_EDGE('',*,*,#1045,.F.);
#872=ORIENTED_EDGE('',*,*,#1039,.T.);
#873=ORIENTED_EDGE('',*,*,#1047,.F.);
#874=ORIENTED_EDGE('',*,*,#1042,.F.);
#875=ORIENTED_EDGE('',*,*,#1014,.T.);
#876=ORIENTED_EDGE('',*,*,#1028,.F.);
#877=ORIENTED_EDGE('',*,*,#1007,.T.);
#878=ORIENTED_EDGE('',*,*,#1032,.T.);
#879=ORIENTED_EDGE('',*,*,#985,.T.);
#880=ORIENTED_EDGE('',*,*,#1031,.F.);
#881=ORIENTED_EDGE('',*,*,#1005,.T.);
#882=ORIENTED_EDGE('',*,*,#1034,.T.);
#883=ORIENTED_EDGE('',*,*,#987,.T.);
#884=ORIENTED_EDGE('',*,*,#1033,.F.);
#885=ORIENTED_EDGE('',*,*,#1003,.T.);
#886=ORIENTED_EDGE('',*,*,#1035,.T.);
#887=ORIENTED_EDGE('',*,*,#969,.T.);
#888=ORIENTED_EDGE('',*,*,#1037,.F.);
#889=ORIENTED_EDGE('',*,*,#1012,.T.);
#890=ORIENTED_EDGE('',*,*,#1040,.T.);
#891=ORIENTED_EDGE('',*,*,#997,.T.);
#892=ORIENTED_EDGE('',*,*,#1046,.T.);
#893=TRIMMED_CURVE('',#1048,(PARAMETER_VALUE(0.)),(PARAMETER_VALUE(3.96079041588785)),
.T.,.PARAMETER.);
#894=EDGE_CURVE('',#1049,#1050,#1051,.T.);
#895=EDGE_CURVE('',#1052,#1049,#1053,.T.);
#896=EDGE_CURVE('',#1054,#1052,#1055,.T.);
#897=EDGE_CURVE('',#1056,#1054,#1057,.T.);
#898=EDGE_CURVE('',#1058,#1056,#1059,.T.);
#899=EDGE_CURVE('',#1060,#1058,#1061,.T.);
#900=EDGE_CURVE('',#1062,#1060,#1063,.T.);
#901=EDGE_CURVE('',#1064,#1062,#1065,.T.);
#902=EDGE_CURVE('',#1064,#1066,#1067,.T.);
#903=EDGE_CURVE('',#1068,#1066,#1069,.F.);
#904=EDGE_CURVE('',#1070,#1068,#1071,.T.);
#905=EDGE_CURVE('',#1072,#1070,#1073,.T.);
#906=EDGE_CURVE('',#1074,#1072,#1075,.T.);
#907=EDGE_CURVE('',#1076,#1074,#1077,.T.);
#908=EDGE_CURVE('',#1050,#1076,#1078,.T.);
#909=EDGE_CURVE('',#1079,#1080,#1081,.T.);
#910=EDGE_CURVE('',#1082,#1079,#1083,.T.);
#911=EDGE_CURVE('',#1084,#1082,#1085,.T.);
#912=EDGE_CURVE('',#1080,#1084,#1086,.T.);
#913=EDGE_CURVE('',#1079,#1087,#1088,.T.);
#914=EDGE_CURVE('',#1089,#1087,#1090,.T.);
#915=EDGE_CURVE('',#1082,#1089,#1091,.T.);
#916=EDGE_CURVE('',#1092,#1089,#1093,.T.);
#917=EDGE_CURVE('',#1084,#1092,#1094,.T.);
#918=EDGE_CURVE('',#1095,#1092,#1096,.T.);
#919=EDGE_CURVE('',#1080,#1095,#1097,.T.);
#920=EDGE_CURVE('',#1087,#1095,#1098,.T.);
#921=EDGE_CURVE('',#1099,#1049,#1100,.T.);
#922=EDGE_CURVE('',#1050,#1101,#1102,.T.);
#923=EDGE_CURVE('',#1103,#1101,#1104,.T.);
#924=EDGE_CURVE('',#1099,#1103,#1105,.T.);
#925=EDGE_CURVE('',#1106,#1099,#1107,.T.);
#926=EDGE_CURVE('',#1052,#1106,#1108,.T.);
#927=EDGE_CURVE('',#1106,#1109,#1110,.T.);
#928=EDGE_CURVE('',#1111,#1109,#1112,.T.);
#929=EDGE_CURVE('',#1054,#1111,#1113,.T.);
#930=EDGE_CURVE('',#1114,#1056,#1115,.T.);
#931=EDGE_CURVE('',#1116,#1111,#1117,.T.);
#932=EDGE_CURVE('',#1114,#1116,#1118,.T.);
#933=EDGE_CURVE('',#1058,#1119,#1120,.T.);
#934=EDGE_CURVE('',#1119,#1114,#1121,.T.);
#935=EDGE_CURVE('',#1119,#1122,#1123,.T.);
#936=EDGE_CURVE('',#1124,#1122,#1125,.T.);
#937=EDGE_CURVE('',#1060,#1124,#1126,.T.);
#938=EDGE_CURVE('',#1127,#1062,#1128,.T.);
#939=EDGE_CURVE('',#1129,#1124,#1130,.T.);
#940=EDGE_CURVE('',#1127,#1129,#1131,.T.);
#941=EDGE_CURVE('',#1132,#1127,#1133,.T.);
#942=EDGE_CURVE('',#1132,#1064,#1134,.T.);
#943=EDGE_CURVE('',#1066,#1135,#1136,.T.);
#944=EDGE_CURVE('',#1137,#1132,#1138,.T.);
#945=EDGE_CURVE('',#1139,#1137,#1140,.F.);
#946=EDGE_CURVE('',#1135,#1139,#1141,.F.);
#947=EDGE_CURVE('',#1142,#1135,#1143,.T.);
#948=EDGE_CURVE('',#1144,#1142,#1145,.T.);
#949=EDGE_CURVE('',#1144,#1146,#1147,.T.);
#950=EDGE_CURVE('',#1146,#1068,#1148,.T.);
#951=EDGE_CURVE('',#1149,#1150,#1151,.T.);
#952=EDGE_CURVE('',#1070,#1149,#1152,.T.);
#953=EDGE_CURVE('',#1153,#1146,#1154,.T.);
#954=EDGE_CURVE('',#1153,#1150,#1155,.T.);
#955=EDGE_CURVE('',#1149,#1156,#1157,.T.);
#956=EDGE_CURVE('',#1158,#1156,#1159,.T.);
#957=EDGE_CURVE('',#1072,#1158,#1160,.T.);
#958=EDGE_CURVE('',#1161,#1074,#1162,.T.);
#959=EDGE_CURVE('',#1163,#1158,#1164,.T.);
#960=EDGE_CURVE('',#1161,#1163,#1165,.T.);
#961=EDGE_CURVE('',#1076,#1166,#1167,.T.);
#962=EDGE_CURVE('',#1166,#1161,#1168,.T.);
#963=EDGE_CURVE('',#1166,#1169,#1170,.T.);
#964=EDGE_CURVE('',#1101,#1169,#1171,.T.);
#965=EDGE_CURVE('',#1169,#1172,#1173,.T.);
#966=EDGE_CURVE('',#1172,#1103,#1174,.T.);
#967=EDGE_CURVE('',#1175,#1099,#1176,.T.);
#968=EDGE_CURVE('',#1175,#1172,#1177,.T.);
#969=EDGE_CURVE('',#1178,#1179,#1180,.F.);
#970=EDGE_CURVE('',#1178,#1181,#1182,.T.);
#971=EDGE_CURVE('',#1183,#1181,#1184,.F.);
#972=EDGE_CURVE('',#1183,#1137,#1185,.T.);
#973=EDGE_CURVE('',#1186,#1127,#1187,.T.);
#974=EDGE_CURVE('',#1119,#1186,#1188,.T.);
#975=EDGE_CURVE('',#1189,#1114,#1190,.T.);
#976=EDGE_CURVE('',#1106,#1189,#1191,.T.);
#977=EDGE_CURVE('',#1166,#1175,#1192,.T.);
#978=EDGE_CURVE('',#1193,#1161,#1194,.T.);
#979=EDGE_CURVE('',#1149,#1193,#1195,.T.);
#980=EDGE_CURVE('',#1150,#1196,#1197,.T.);
#981=EDGE_CURVE('',#1198,#1196,#1199,.T.);
#982=EDGE_CURVE('',#1200,#1198,#1201,.T.);
#983=EDGE_CURVE('',#1202,#1200,#1203,.F.);
#984=EDGE_CURVE('',#1202,#1204,#1205,.T.);
#985=EDGE_CURVE('',#1206,#1204,#1207,.F.);
#986=EDGE_CURVE('',#1206,#1208,#1209,.T.);
#987=EDGE_CURVE('',#1210,#1208,#1211,.F.);
#988=EDGE_CURVE('',#1210,#1179,#1212,.T.);
#989=EDGE_CURVE('',#1189,#1213,#1214,.T.);
#990=EDGE_CURVE('',#1109,#1213,#1215,.T.);
#991=EDGE_CURVE('',#1213,#1116,#1216,.T.);
#992=EDGE_CURVE('',#1186,#1217,#1218,.T.);
#993=EDGE_CURVE('',#1122,#1217,#1219,.T.);
#994=EDGE_CURVE('',#1217,#1129,#1220,.T.);
#995=EDGE_CURVE('',#1221,#1183,#1222,.T.);
#996=EDGE_CURVE('',#1221,#1139,#1223,.T.);
#997=EDGE_CURVE('',#1224,#1225,#1226,.F.);
#998=EDGE_CURVE('',#1224,#1227,#1228,.T.);
#999=EDGE_CURVE('',#1229,#1227,#1230,.F.);
#1000=EDGE_CURVE('',#1229,#1142,#1231,.T.);
#1001=EDGE_CURVE('',#1232,#1221,#1233,.F.);
#1002=EDGE_CURVE('',#1234,#1232,#1235,.T.);
#1003=EDGE_CURVE('',#1236,#1234,#1237,.F.);
#1004=EDGE_CURVE('',#1238,#1236,#1239,.T.);
#1005=EDGE_CURVE('',#1240,#1238,#1241,.F.);
#1006=EDGE_CURVE('',#1242,#1240,#1243,.T.);
#1007=EDGE_CURVE('',#1244,#1242,#1245,.F.);
#1008=EDGE_CURVE('',#1246,#1244,#1247,.T.);
#1009=EDGE_CURVE('',#1225,#1246,#1248,.F.);
#1010=EDGE_CURVE('',#1249,#1229,#1250,.T.);
#1011=EDGE_CURVE('',#1249,#1144,#1251,.T.);
#1012=EDGE_CURVE('',#1252,#1253,#1254,.F.);
#1013=EDGE_CURVE('',#1255,#1252,#1256,.T.);
#1014=EDGE_CURVE('',#1257,#1255,#1258,.F.);
#1015=EDGE_CURVE('',#1259,#1257,#1260,.F.);
#1016=EDGE_CURVE('',#1259,#1261,#1262,.T.);
#1017=EDGE_CURVE('',#1263,#1261,#1264,.T.);
#1018=EDGE_CURVE('',#1153,#1263,#1265,.T.);
#1019=EDGE_CURVE('',#1266,#1249,#1267,.F.);
#1020=EDGE_CURVE('',#1253,#1266,#1268,.T.);
#1021=EDGE_CURVE('',#1196,#1263,#1269,.T.);
#1022=EDGE_CURVE('',#1193,#1270,#1271,.T.);
#1023=EDGE_CURVE('',#1156,#1270,#1272,.T.);
#1024=EDGE_CURVE('',#1270,#1163,#1273,.T.);
#1025=EDGE_CURVE('',#1261,#1198,#1274,.T.);
#1026=EDGE_CURVE('',#1259,#1275,#1276,.T.);
#1027=EDGE_CURVE('',#1275,#1200,#1277,.T.);
#1028=EDGE_CURVE('',#1244,#1204,#1278,.T.);
#1029=EDGE_CURVE('',#1279,#1202,#1280,.T.);
#1030=EDGE_CURVE('',#1246,#1279,#1281,.F.);
#1031=EDGE_CURVE('',#1240,#1208,#1282,.T.);
#1032=EDGE_CURVE('',#1242,#1206,#1283,.T.);
#1033=EDGE_CURVE('',#1236,#1179,#1284,.T.);
#1034=EDGE_CURVE('',#1238,#1210,#1285,.T.);
#1035=EDGE_CURVE('',#1234,#1178,#1286,.T.);
#1036=EDGE_CURVE('',#1232,#1181,#1287,.T.);
#1037=EDGE_CURVE('',#1252,#1288,#1289,.T.);
#1038=EDGE_CURVE('',#1288,#1290,#1291,.F.);
#1039=EDGE_CURVE('',#1255,#1290,#1292,.T.);
#1040=EDGE_CURVE('',#1253,#1224,#1293,.T.);
#1041=EDGE_CURVE('',#1266,#1227,#1294,.T.);
#1042=EDGE_CURVE('',#1257,#1295,#1296,.T.);
#1043=EDGE_CURVE('',#1295,#1275,#1297,.T.);
#1044=EDGE_CURVE('',#1279,#1295,#1298,.F.);
#1045=EDGE_CURVE('',#1279,#1288,#1299,.T.);
#1046=EDGE_CURVE('',#1225,#1288,#1300,.F.);
#1047=EDGE_CURVE('',#1295,#1290,#1301,.T.);
#1048=CIRCLE('',#1302,4.);
#1049=VERTEX_POINT('',#1306);
#1050=VERTEX_POINT('',#1307);
#1051=LINE('',#1308,#1309);
#1052=VERTEX_POINT('',#1311);
#1053=LINE('',#1312,#1313);
#1054=VERTEX_POINT('',#1315);
#1055=LINE('',#1316,#1317);
#1056=VERTEX_POINT('',#1319);
#1057=LINE('',#1320,#1321);
#1058=VERTEX_POINT('',#1323);
#1059=LINE('',#1324,#1325);
#1060=VERTEX_POINT('',#1327);
#1061=LINE('',#1328,#1329);
#1062=VERTEX_POINT('',#1331);
#1063=LINE('',#1332,#1333);
#1064=VERTEX_POINT('',#1335);
#1065=LINE('',#1336,#1337);
#1066=VERTEX_POINT('',#1339);
#1067=CIRCLE('',#1340,4.);
#1068=VERTEX_POINT('',#1344);
#1069=CIRCLE('',#1345,3.99899142381065);
#1070=VERTEX_POINT('',#1349);
#1071=LINE('',#1350,#1351);
#1072=VERTEX_POINT('',#1353);
#1073=LINE('',#1354,#1355);
#1074=VERTEX_POINT('',#1357);
#1075=LINE('',#1358,#1359);
#1076=VERTEX_POINT('',#1361);
#1077=LINE('',#1362,#1363);
#1078=LINE('',#1365,#1366);
#1079=VERTEX_POINT('',#1368);
#1080=VERTEX_POINT('',#1369);
#1081=LINE('',#1370,#1371);
#1082=VERTEX_POINT('',#1373);
#1083=LINE('',#1374,#1375);
#1084=VERTEX_POINT('',#1377);
#1085=LINE('',#1378,#1379);
#1086=LINE('',#1381,#1382);
#1087=VERTEX_POINT('',#1384);
#1088=LINE('',#1385,#1386);
#1089=VERTEX_POINT('',#1388);
#1090=LINE('',#1389,#1390);
#1091=LINE('',#1392,#1393);
#1092=VERTEX_POINT('',#1395);
#1093=LINE('',#1396,#1397);
#1094=LINE('',#1399,#1400);
#1095=VERTEX_POINT('',#1402);
#1096=LINE('',#1403,#1404);
#1097=LINE('',#1406,#1407);
#1098=LINE('',#1409,#1410);
#1099=VERTEX_POINT('',#1412);
#1100=LINE('',#1413,#1414);
#1101=VERTEX_POINT('',#1416);
#1102=LINE('',#1417,#1418);
#1103=VERTEX_POINT('',#1420);
#1104=LINE('',#1421,#1422);
#1105=LINE('',#1424,#1425);
#1106=VERTEX_POINT('',#1427);
#1107=LINE('',#1428,#1429);
#1108=LINE('',#1431,#1432);
#1109=VERTEX_POINT('',#1434);
#1110=LINE('',#1435,#1436);
#1111=VERTEX_POINT('',#1438);
#1112=LINE('',#1439,#1440);
#1113=LINE('',#1442,#1443);
#1114=VERTEX_POINT('',#1445);
#1115=LINE('',#1446,#1447);
#1116=VERTEX_POINT('',#1449);
#1117=LINE('',#1450,#1451);
#1118=LINE('',#1453,#1454);
#1119=VERTEX_POINT('',#1456);
#1120=LINE('',#1457,#1458);
#1121=LINE('',#1460,#1461);
#1122=VERTEX_POINT('',#1463);
#1123=LINE('',#1464,#1465);
#1124=VERTEX_POINT('',#1467);
#1125=LINE('',#1468,#1469);
#1126=LINE('',#1471,#1472);
#1127=VERTEX_POINT('',#1474);
#1128=LINE('',#1475,#1476);
#1129=VERTEX_POINT('',#1478);
#1130=LINE('',#1479,#1480);
#1131=LINE('',#1482,#1483);
#1132=VERTEX_POINT('',#1485);
#1133=LINE('',#1486,#1487);
#1134=LINE('',#1489,#1490);
#1135=VERTEX_POINT('',#1492);
#1136=LINE('',#1493,#1494);
#1137=VERTEX_POINT('',#1496);
#1138=CIRCLE('',#1497,4.);
#1139=VERTEX_POINT('',#1501);
#1140=LINE('',#1502,#1503);
#1141=CIRCLE('',#1505,4.);
#1142=VERTEX_POINT('',#1509);
#1143=CIRCLE('',#1510,3.99899142381065);
#1144=VERTEX_POINT('',#1514);
#1145=LINE('',#1515,#1516);
#1146=VERTEX_POINT('',#1518);
#1147=CIRCLE('',#1519,3.99899142381065);
#1148=LINE('',#1523,#1524);
#1149=VERTEX_POINT('',#1526);
#1150=VERTEX_POINT('',#1527);
#1151=LINE('',#1528,#1529);
#1152=LINE('',#1531,#1532);
#1153=VERTEX_POINT('',#1534);
#1154=LINE('',#1535,#1536);
#1155=CIRCLE('',#1538,2.49146188171684);
#1156=VERTEX_POINT('',#1542);
#1157=LINE('',#1543,#1544);
#1158=VERTEX_POINT('',#1546);
#1159=LINE('',#1547,#1548);
#1160=LINE('',#1550,#1551);
#1161=VERTEX_POINT('',#1553);
#1162=LINE('',#1554,#1555);
#1163=VERTEX_POINT('',#1557);
#1164=LINE('',#1558,#1559);
#1165=LINE('',#1561,#1562);
#1166=VERTEX_POINT('',#1564);
#1167=LINE('',#1565,#1566);
#1168=LINE('',#1568,#1569);
#1169=VERTEX_POINT('',#1571);
#1170=LINE('',#1572,#1573);
#1171=LINE('',#1575,#1576);
#1172=VERTEX_POINT('',#1578);
#1173=LINE('',#1579,#1580);
#1174=LINE('',#1582,#1583);
#1175=VERTEX_POINT('',#1585);
#1176=LINE('',#1586,#1587);
#1177=LINE('',#1589,#1590);
#1178=VERTEX_POINT('',#1592);
#1179=VERTEX_POINT('',#1593);
#1180=CIRCLE('',#1594,1.);
#1181=VERTEX_POINT('',#1598);
#1182=LINE('',#1599,#1600);
#1183=VERTEX_POINT('',#1602);
#1184=CIRCLE('',#1603,1.);
#1185=LINE('',#1607,#1608);
#1186=VERTEX_POINT('',#1610);
#1187=LINE('',#1611,#1612);
#1188=LINE('',#1614,#1615);
#1189=VERTEX_POINT('',#1617);
#1190=LINE('',#1618,#1619);
#1191=LINE('',#1621,#1622);
#1192=LINE('',#1624,#1625);
#1193=VERTEX_POINT('',#1627);
#1194=LINE('',#1628,#1629);
#1195=LINE('',#1631,#1632);
#1196=VERTEX_POINT('',#1634);
#1197=LINE('',#1635,#1636);
#1198=VERTEX_POINT('',#1638);
#1199=LINE('',#1639,#1640);
#1200=VERTEX_POINT('',#1642);
#1201=LINE('',#1643,#1644);
#1202=VERTEX_POINT('',#1646);
#1203=CIRCLE('',#1647,1.);
#1204=VERTEX_POINT('',#1651);
#1205=LINE('',#1652,#1653);
#1206=VERTEX_POINT('',#1655);
#1207=CIRCLE('',#1656,1.);
#1208=VERTEX_POINT('',#1660);
#1209=LINE('',#1661,#1662);
#1210=VERTEX_POINT('',#1664);
#1211=CIRCLE('',#1665,1.);
#1212=LINE('',#1669,#1670);
#1213=VERTEX_POINT('',#1672);
#1214=LINE('',#1673,#1674);
#1215=LINE('',#1676,#1677);
#1216=LINE('',#1679,#1680);
#1217=VERTEX_POINT('',#1682);
#1218=LINE('',#1683,#1684);
#1219=LINE('',#1686,#1687);
#1220=LINE('',#1689,#1690);
#1221=VERTEX_POINT('',#1692);
#1222=LINE('',#1693,#1694);
#1223=LINE('',#1696,#1697);
#1224=VERTEX_POINT('',#1699);
#1225=VERTEX_POINT('',#1700);
#1226=CIRCLE('',#1701,1.);
#1227=VERTEX_POINT('',#1705);
#1228=CIRCLE('',#1706,2.99899142381065);
#1229=VERTEX_POINT('',#1710);
#1230=CIRCLE('',#1711,1.);
#1231=LINE('',#1715,#1716);
#1232=VERTEX_POINT('',#1718);
#1233=CIRCLE('',#1719,0.999999999999996);
#1234=VERTEX_POINT('',#1723);
#1235=LINE('',#1724,#1725);
#1236=VERTEX_POINT('',#1727);
#1237=CIRCLE('',#1728,1.);
#1238=VERTEX_POINT('',#1732);
#1239=LINE('',#1733,#1734);
#1240=VERTEX_POINT('',#1736);
#1241=CIRCLE('',#1737,1.);
#1242=VERTEX_POINT('',#1741);
#1243=LINE('',#1742,#1743);
#1244=VERTEX_POINT('',#1745);
#1245=CIRCLE('',#1746,0.999999999999998);
#1246=VERTEX_POINT('',#1750);
#1247=LINE('',#1751,#1752);
#1248=CIRCLE('',#1754,1.);
#1249=VERTEX_POINT('',#1758);
#1250=LINE('',#1759,#1760);
#1251=LINE('',#1762,#1763);
#1252=VERTEX_POINT('',#1765);
#1253=VERTEX_POINT('',#1766);
#1254=CIRCLE('',#1767,1.);
#1255=VERTEX_POINT('',#1771);
#1256=LINE('',#1772,#1773);
#1257=VERTEX_POINT('',#1775);
#1258=(BOUNDED_CURVE()B_SPLINE_CURVE(2,
(#1776,#1777,#1778),
.UNSPECIFIED.,.F.,.F.)B_SPLINE_CURVE_WITH_KNOTS((3,3),
(0.,1.),
.UNSPECIFIED.)CURVE()GEOMETRIC_REPRESENTATION_ITEM()RATIONAL_B_SPLINE_CURVE((1.,
0.998799074720961,1.))REPRESENTATION_ITEM(''));
#1259=VERTEX_POINT('',#1779);
#1260=(BOUNDED_CURVE()B_SPLINE_CURVE(2,
(#1780,#1781,#1782),
.UNSPECIFIED.,.F.,.F.)B_SPLINE_CURVE_WITH_KNOTS((3,3),
(0.,1.),
.UNSPECIFIED.)CURVE()GEOMETRIC_REPRESENTATION_ITEM()RATIONAL_B_SPLINE_CURVE((0.986850779553209,
0.803036762258929,1.))REPRESENTATION_ITEM(''));
#1261=VERTEX_POINT('',#1783);
#1262=LINE('',#1784,#1785);
#1263=VERTEX_POINT('',#1787);
#1264=LINE('',#1788,#1789);
#1265=LINE('',#1791,#1792);
#1266=VERTEX_POINT('',#1794);
#1267=CIRCLE('',#1795,0.999999999999994);
#1268=CIRCLE('',#1799,2.99899142381065);
#1269=CIRCLE('',#1803,2.49146188171684);
#1270=VERTEX_POINT('',#1807);
#1271=LINE('',#1808,#1809);
#1272=LINE('',#1811,#1812);
#1273=LINE('',#1814,#1815);
#1274=CIRCLE('',#1817,3.);
#1275=VERTEX_POINT('',#1821);
#1276=B_SPLINE_CURVE_WITH_KNOTS('',3,
(#1822,#1823,#1824,#1825,#1826,#1827),
.UNSPECIFIED.,.F.,.F.,
(4,1,1,4),
(0.,0.333333333333333,0.666666666666667,1.),
.UNSPECIFIED.);
#1277=CIRCLE('',#1828,3.);
#1278=LINE('',#1832,#1833);
#1279=VERTEX_POINT('',#1835);
#1280=CIRCLE('',#1836,4.);
#1281=LINE('',#1840,#1841);
#1282=LINE('',#1843,#1844);
#1283=LINE('',#1846,#1847);
#1284=LINE('',#1849,#1850);
#1285=LINE('',#1852,#1853);
#1286=LINE('',#1855,#1856);
#1287=LINE('',#1858,#1859);
#1288=VERTEX_POINT('',#1861);
#1289=LINE('',#1862,#1863);
#1290=VERTEX_POINT('',#1865);
#1291=B_SPLINE_CURVE_WITH_KNOTS('',3,
(#1866,#1867,#1868,#1869,#1870,#1871),
.UNSPECIFIED.,.F.,.F.,
(4,1,1,4),
(0.,0.333333333333333,0.666666666666667,1.),
.UNSPECIFIED.);
#1292=B_SPLINE_CURVE_WITH_KNOTS('',3,
(#1872,#1873,#1874,#1875,#1876,#1877),
.UNSPECIFIED.,.F.,.F.,
(4,1,1,4),
(0.,0.333333333333333,0.666666666666667,1.),
.UNSPECIFIED.);
#1293=LINE('',#1878,#1879);
#1294=LINE('',#1881,#1882);
#1295=VERTEX_POINT('',#1884);
#1296=B_SPLINE_CURVE_WITH_KNOTS('',3,
(#1885,#1886,#1887,#1888,#1889,#1890),
.UNSPECIFIED.,.F.,.F.,
(4,1,1,4),
(0.,0.333333333333333,0.666666666666667,1.),
.UNSPECIFIED.);
#1297=CIRCLE('',#1891,0.999999999999998);
#1298=B_SPLINE_CURVE_WITH_KNOTS('',3,
(#1895,#1896,#1897,#1898,#1899,#1900),
.UNSPECIFIED.,.F.,.F.,
(4,1,1,4),
(0.,0.333333333333333,0.666666666666667,1.),
.UNSPECIFIED.);
#1299=CIRCLE('',#1901,0.999999999999977);
#1300=LINE('',#1905,#1906);
#1301=CIRCLE('',#1908,1.0000000000001);
#1302=AXIS2_PLACEMENT_3D('',#1303,#1304,#1305);
#1303=CARTESIAN_POINT('',(-20.984664740682,9.75410164197559E-17,-1.59296568590499));
#1304=DIRECTION('',(0.,-1.,-6.12323399573677E-17));
#1305=DIRECTION('',(-0.917280638747259,-2.43852541049388E-17,0.398241421476246));
#1306=CARTESIAN_POINT('',(-4.99999999999999,1.,-49.));
#1307=CARTESIAN_POINT('',(-5.,1.,-47.));
#1308=CARTESIAN_POINT('',(-5.,1.,-49.));
#1309=VECTOR('',#1310,1.);
#1310=DIRECTION('',(0.,-1.11022302462516E-16,1.));
#1311=CARTESIAN_POINT('',(-24.,1.,-49.));
#1312=CARTESIAN_POINT('',(-24.,1.,-49.));
#1313=VECTOR('',#1314,1.);
#1314=DIRECTION('',(1.,0.,0.));
#1315=CARTESIAN_POINT('',(-24.,1.,-47.));
#1316=CARTESIAN_POINT('',(-24.,1.,-47.));
#1317=VECTOR('',#1318,1.);
#1318=DIRECTION('',(0.,1.11022302462516E-16,-1.));
#1319=CARTESIAN_POINT('',(-28.,1.,-47.));
#1320=CARTESIAN_POINT('',(-28.,1.,-47.));
#1321=VECTOR('',#1322,1.);
#1322=DIRECTION('',(1.,0.,0.));
#1323=CARTESIAN_POINT('',(-28.,1.,-3.00000000000001));
#1324=CARTESIAN_POINT('',(-28.,1.,-3.00000000000001));
#1325=VECTOR('',#1326,1.);
#1326=DIRECTION('',(1.61486985400023E-16,6.05576195250086E-17,-1.));
#1327=CARTESIAN_POINT('',(-26.,1.,-3.00000000000001));
#1328=CARTESIAN_POINT('',(-26.,1.,-3.00000000000001));
#1329=VECTOR('',#1330,1.);
#1330=DIRECTION('',(-1.,0.,0.));
#1331=CARTESIAN_POINT('',(-26.,1.,-1.00000000000001));
#1332=CARTESIAN_POINT('',(-26.,1.,-1.00000000000001));
#1333=VECTOR('',#1334,1.);
#1334=DIRECTION('',(0.,1.11022302462516E-16,-1.));
#1335=CARTESIAN_POINT('',(-24.9404695507478,1.,-1.00000000000001));
#1336=CARTESIAN_POINT('',(-24.9404695507478,1.,-1.00000000000001));
#1337=VECTOR('',#1338,1.);
#1338=DIRECTION('',(-1.,0.,-4.19137751221283E-16));
#1339=CARTESIAN_POINT('',(-20.984664740682,0.999999999999999,-5.59296568590499));
#1340=AXIS2_PLACEMENT_3D('',#1341,#1342,#1343);
#1341=CARTESIAN_POINT('',(-20.984664740682,1.,-1.59296568590499));
#1342=DIRECTION('',(0.,-1.,-6.12323399573677E-17));
#1343=DIRECTION('',(-0.988951202516434,-9.07716911559701E-18,0.148241421476247));
#1344=CARTESIAN_POINT('',(-17.0284933187963,1.,-1.));
#1345=AXIS2_PLACEMENT_3D('',#1346,#1347,#1348);
#1346=CARTESIAN_POINT('',(-20.9831268836673,1.,-1.59397455779444));
#1347=DIRECTION('',(3.08148791101958E-33,-1.,-6.12323399573677E-17));
#1348=DIRECTION('',(-0.000384561218805355,6.12323354296238E-17,-0.999999926056332));
#1349=CARTESIAN_POINT('',(-2.99999999999999,1.,-1.));
#1350=CARTESIAN_POINT('',(-2.99999999999999,1.,-1.));
#1351=VECTOR('',#1352,1.);
#1352=DIRECTION('',(-1.,0.,-2.69077954270959E-16));
#1353=CARTESIAN_POINT('',(-2.99999999999999,1.,-3.));
#1354=CARTESIAN_POINT('',(-2.99999999999999,1.,-3.));
#1355=VECTOR('',#1356,1.);
#1356=DIRECTION('',(0.,-1.11022302462516E-16,1.));
#1357=CARTESIAN_POINT('',(-1.,1.,-3.));
#1358=CARTESIAN_POINT('',(-1.,1.,-3.));
#1359=VECTOR('',#1360,1.);
#1360=DIRECTION('',(-1.,0.,0.));
#1361=CARTESIAN_POINT('',(-0.999999999999997,1.,-47.));
#1362=CARTESIAN_POINT('',(-0.999999999999997,1.,-47.));
#1363=VECTOR('',#1364,1.);
#1364=DIRECTION('',(-5.29879170843825E-17,-6.05576195250085E-17,1.));
#1365=CARTESIAN_POINT('',(-5.,1.,-47.));
#1366=VECTOR('',#1367,1.);
#1367=DIRECTION('',(1.,0.,0.));
#1368=CARTESIAN_POINT('',(-16.7415696232239,1.,-20.0320512699031));
#1369=CARTESIAN_POINT('',(-20.0212049070162,1.,-20.0320512699031));
#1370=CARTESIAN_POINT('',(-16.7415696232239,1.,-20.0320512699031));
#1371=VECTOR('',#1372,1.);
#1372=DIRECTION('',(-1.,0.,0.));
#1373=CARTESIAN_POINT('',(-16.7415696232239,1.,-13.0320512699031));
#1374=CARTESIAN_POINT('',(-16.7415696232239,1.,-13.0320512699031));
#1375=VECTOR('',#1376,1.);
#1376=DIRECTION('',(0.,6.34413156928661E-17,-1.));
#1377=CARTESIAN_POINT('',(-20.0212049070162,1.,-13.0320512699031));
#1378=CARTESIAN_POINT('',(-20.0212049070162,1.,-13.0320512699031));
#1379=VECTOR('',#1380,1.);
#1380=DIRECTION('',(1.,0.,0.));
#1381=CARTESIAN_POINT('',(-20.0212049070162,1.,-20.0320512699031));
#1382=VECTOR('',#1383,1.);
#1383=DIRECTION('',(0.,-6.34413156928661E-17,1.));
#1384=CARTESIAN_POINT('',(-16.7415696232239,9.,-20.0320512699031));
#1385=CARTESIAN_POINT('',(-16.7415696232239,1.,-20.0320512699031));
#1386=VECTOR('',#1387,1.);
#1387=DIRECTION('',(0.,1.,0.));
#1388=CARTESIAN_POINT('',(-16.7415696232239,9.,-13.0320512699031));
#1389=CARTESIAN_POINT('',(-16.7415696232239,9.,-13.0320512699031));
#1390=VECTOR('',#1391,1.);
#1391=DIRECTION('',(0.,2.53765262771464E-16,-1.));
#1392=CARTESIAN_POINT('',(-16.7415696232239,1.,-13.0320512699031));
#1393=VECTOR('',#1394,1.);
#1394=DIRECTION('',(0.,1.,0.));
#1395=CARTESIAN_POINT('',(-20.0212049070162,9.,-13.0320512699031));
#1396=CARTESIAN_POINT('',(-20.0212049070162,9.,-13.0320512699031));
#1397=VECTOR('',#1398,1.);
#1398=DIRECTION('',(1.,0.,0.));
#1399=CARTESIAN_POINT('',(-20.0212049070162,1.,-13.0320512699031));
#1400=VECTOR('',#1401,1.);
#1401=DIRECTION('',(0.,1.,-2.22044604925031E-16));
#1402=CARTESIAN_POINT('',(-20.0212049070162,9.,-20.0320512699031));
#1403=CARTESIAN_POINT('',(-20.0212049070162,9.,-20.0320512699031));
#1404=VECTOR('',#1405,1.);
#1405=DIRECTION('',(0.,-2.53765262771464E-16,1.));
#1406=CARTESIAN_POINT('',(-20.0212049070162,1.,-20.0320512699031));
#1407=VECTOR('',#1408,1.);
#1408=DIRECTION('',(0.,1.,0.));
#1409=CARTESIAN_POINT('',(-16.7415696232239,9.,-20.0320512699031));
#1410=VECTOR('',#1411,1.);
#1411=DIRECTION('',(-1.,0.,0.));
#1412=CARTESIAN_POINT('',(-5.,6.5,-49.));
#1413=CARTESIAN_POINT('',(-5.,6.5,-49.));
#1414=VECTOR('',#1415,1.);
#1415=DIRECTION('',(0.,-1.,0.));
#1416=CARTESIAN_POINT('',(-5.,10.,-47.));
#1417=CARTESIAN_POINT('',(-5.,1.,-47.));
#1418=VECTOR('',#1419,1.);
#1419=DIRECTION('',(0.,1.,0.));
#1420=CARTESIAN_POINT('',(-5.,10.,-49.));
#1421=CARTESIAN_POINT('',(-5.,10.,-49.));
#1422=VECTOR('',#1423,1.);
#1423=DIRECTION('',(0.,0.,1.));
#1424=CARTESIAN_POINT('',(-5.,6.5,-49.));
#1425=VECTOR('',#1426,1.);
#1426=DIRECTION('',(0.,1.,0.));
#1427=CARTESIAN_POINT('',(-24.,6.5,-49.));
#1428=CARTESIAN_POINT('',(-24.,6.5,-49.));
#1429=VECTOR('',#1430,1.);
#1430=DIRECTION('',(1.,0.,0.));
#1431=CARTESIAN_POINT('',(-24.,1.,-49.));
#1432=VECTOR('',#1433,1.);
#1433=DIRECTION('',(0.,1.,0.));
#1434=CARTESIAN_POINT('',(-24.,10.,-49.));
#1435=CARTESIAN_POINT('',(-24.,6.50000000000001,-49.));
#1436=VECTOR('',#1437,1.);
#1437=DIRECTION('',(0.,1.,0.));
#1438=CARTESIAN_POINT('',(-24.,10.,-47.));
#1439=CARTESIAN_POINT('',(-24.,10.,-47.));
#1440=VECTOR('',#1441,1.);
#1441=DIRECTION('',(0.,0.,-1.));
#1442=CARTESIAN_POINT('',(-24.,1.,-47.));
#1443=VECTOR('',#1444,1.);
#1444=DIRECTION('',(0.,1.,0.));
#1445=CARTESIAN_POINT('',(-28.,6.5,-47.));
#1446=CARTESIAN_POINT('',(-28.,6.5,-47.));
#1447=VECTOR('',#1448,1.);
#1448=DIRECTION('',(0.,-1.,0.));
#1449=CARTESIAN_POINT('',(-28.,10.,-47.));
#1450=CARTESIAN_POINT('',(-28.,10.,-47.));
#1451=VECTOR('',#1452,1.);
#1452=DIRECTION('',(1.,0.,0.));
#1453=CARTESIAN_POINT('',(-28.,6.5,-47.));
#1454=VECTOR('',#1455,1.);
#1455=DIRECTION('',(0.,1.,0.));
#1456=CARTESIAN_POINT('',(-28.,6.5,-3.00000000000001));
#1457=CARTESIAN_POINT('',(-28.,1.,-3.00000000000001));
#1458=VECTOR('',#1459,1.);
#1459=DIRECTION('',(0.,1.,8.07434927000114E-17));
#1460=CARTESIAN_POINT('',(-28.,6.5,-3.00000000000001));
#1461=VECTOR('',#1462,1.);
#1462=DIRECTION('',(1.61486985400023E-16,4.03717463500057E-17,-1.));
#1463=CARTESIAN_POINT('',(-28.,10.,-3.00000000000001));
#1464=CARTESIAN_POINT('',(-28.,6.5,-3.00000000000001));
#1465=VECTOR('',#1466,1.);
#1466=DIRECTION('',(0.,1.,1.26882631385732E-16));
#1467=CARTESIAN_POINT('',(-26.,10.,-3.00000000000001));
#1468=CARTESIAN_POINT('',(-26.,10.,-3.00000000000001));
#1469=VECTOR('',#1470,1.);
#1470=DIRECTION('',(-1.,0.,0.));
#1471=CARTESIAN_POINT('',(-26.,1.,-3.00000000000001));
#1472=VECTOR('',#1473,1.);
#1473=DIRECTION('',(0.,1.,0.));
#1474=CARTESIAN_POINT('',(-26.,6.5,-1.00000000000001));
#1475=CARTESIAN_POINT('',(-26.,6.5,-1.00000000000001));
#1476=VECTOR('',#1477,1.);
#1477=DIRECTION('',(0.,-1.,0.));
#1478=CARTESIAN_POINT('',(-26.,10.,-1.00000000000001));
#1479=CARTESIAN_POINT('',(-26.,10.,-1.00000000000001));
#1480=VECTOR('',#1481,1.);
#1481=DIRECTION('',(0.,0.,-1.));
#1482=CARTESIAN_POINT('',(-26.,6.5,-1.00000000000001));
#1483=VECTOR('',#1484,1.);
#1484=DIRECTION('',(0.,1.,6.34413156928661E-17));
#1485=CARTESIAN_POINT('',(-24.9404695507478,6.5,-1.00000000000001));
#1486=CARTESIAN_POINT('',(-24.9404695507478,6.5,-1.00000000000001));
#1487=VECTOR('',#1488,1.);
#1488=DIRECTION('',(-1.,8.38275502442569E-16,3.14353313415963E-15));
#1489=CARTESIAN_POINT('',(-24.9404695507478,6.5,-1.00000000000001));
#1490=VECTOR('',#1491,1.);
#1491=DIRECTION('',(6.45947941600091E-16,-1.,-4.03717463500057E-17));
#1492=CARTESIAN_POINT('',(-20.9846647406828,-1.66220004731717E-15,-5.59296568590499));
#1493=CARTESIAN_POINT('',(-20.9846647406832,0.999999999999996,-5.59296568590499));
#1494=VECTOR('',#1495,1.);
#1495=DIRECTION('',(0.,-1.,0.));
#1496=CARTESIAN_POINT('',(-24.6537872956711,6.5,-9.11939970686392E-15));
#1497=AXIS2_PLACEMENT_3D('',#1498,#1499,#1500);
#1498=CARTESIAN_POINT('',(-20.984664740682,6.5,-1.59296568590499));
#1499=DIRECTION('',(0.,-1.,-6.21724893790088E-17));
#1500=DIRECTION('',(-0.917280638747259,-2.47596605470133E-17,0.398241421476246));
#1501=CARTESIAN_POINT('',(-24.6537872956711,5.3001588297125E-31,-8.68961335864824E-15));
#1502=CARTESIAN_POINT('',(-24.6537872956711,6.5,-7.35082831993248E-15));
#1503=VECTOR('',#1504,1.);
#1504=DIRECTION('',(0.,-1.,-6.47768784286886E-17));
#1505=AXIS2_PLACEMENT_3D('',#1506,#1507,#1508);
#1506=CARTESIAN_POINT('',(-20.984664740682,9.75410164197559E-17,-1.59296568590499));
#1507=DIRECTION('',(0.,-1.,-6.12323399573677E-17));
#1508=DIRECTION('',(-0.917280638747259,-2.43852541049388E-17,0.398241421476246));
#1509=CARTESIAN_POINT('',(-24.6507115816416,-3.01884150351619E-15,-1.77153122207909E-16));
#1510=AXIS2_PLACEMENT_3D('',#1511,#1512,#1513);
#1511=CARTESIAN_POINT('',(-20.9831268836673,9.76027920062639E-17,-1.59397455779444));
#1512=DIRECTION('',(0.,-1.,-6.12323399573677E-17));
#1513=DIRECTION('',(-0.917127422713859,-2.44068520440231E-17,0.398594142588967));
#1514=CARTESIAN_POINT('',(-24.6507115816416,6.5,2.20857087514981E-16));
#1515=CARTESIAN_POINT('',(-24.6507115816416,6.5,1.66533453693773E-16));
#1516=VECTOR('',#1517,1.);
#1517=DIRECTION('',(0.,-1.,-6.78425647559889E-17));
#1518=CARTESIAN_POINT('',(-17.0284933187963,6.5,-1.));
#1519=AXIS2_PLACEMENT_3D('',#1520,#1521,#1522);
#1520=CARTESIAN_POINT('',(-20.9831268836673,6.5,-1.59397455779444));
#1521=DIRECTION('',(0.,-1.,-6.21724893790088E-17));
#1522=DIRECTION('',(-0.917127422713859,-2.47815900966477E-17,0.398594142588967));
#1523=CARTESIAN_POINT('',(-17.0284933187963,6.5,-1.));
#1524=VECTOR('',#1525,1.);
#1525=DIRECTION('',(0.,-1.,1.61486985400023E-16));
#1526=CARTESIAN_POINT('',(-2.99999999999999,6.5,-1.));
#1527=CARTESIAN_POINT('',(-11.0920610168467,6.5,-1.));
#1528=CARTESIAN_POINT('',(-2.99999999999999,6.5,-1.));
#1529=VECTOR('',#1530,1.);
#1530=DIRECTION('',(-1.,0.,-1.37199042655981E-16));
#1531=CARTESIAN_POINT('',(-2.99999999999999,1.,-1.));
#1532=VECTOR('',#1533,1.);
#1533=DIRECTION('',(0.,1.,0.));
#1534=CARTESIAN_POINT('',(-16.0749847802804,6.5,-1.));
#1535=CARTESIAN_POINT('',(-16.0749847802804,6.5,-1.));
#1536=VECTOR('',#1537,1.);
#1537=DIRECTION('',(-1.,0.,-2.32871123808315E-16));
#1538=AXIS2_PLACEMENT_3D('',#1539,#1540,#1541);
#1539=CARTESIAN_POINT('',(-13.5835228985635,6.50000000000001,-1.));
#1540=DIRECTION('',(-2.63163976207445E-16,0.,1.));
#1541=DIRECTION('',(-1.,-1.42595546208091E-15,-2.63163976207445E-16));
#1542=CARTESIAN_POINT('',(-2.99999999999999,10.,-1.));
#1543=CARTESIAN_POINT('',(-2.99999999999999,6.5,-1.));
#1544=VECTOR('',#1545,1.);
#1545=DIRECTION('',(0.,1.,6.34413156928661E-17));
#1546=CARTESIAN_POINT('',(-2.99999999999999,10.,-3.));
#1547=CARTESIAN_POINT('',(-2.99999999999999,10.,-3.));
#1548=VECTOR('',#1549,1.);
#1549=DIRECTION('',(0.,0.,1.));
#1550=CARTESIAN_POINT('',(-2.99999999999999,1.,-3.));
#1551=VECTOR('',#1552,1.);
#1552=DIRECTION('',(0.,1.,4.93432455388958E-17));
#1553=CARTESIAN_POINT('',(-1.,6.5,-3.));
#1554=CARTESIAN_POINT('',(-1.,6.5,-3.));
#1555=VECTOR('',#1556,1.);
#1556=DIRECTION('',(0.,-1.,0.));
#1557=CARTESIAN_POINT('',(-1.,10.,-3.));
#1558=CARTESIAN_POINT('',(-1.,10.,-3.));
#1559=VECTOR('',#1560,1.);
#1560=DIRECTION('',(-1.,0.,0.));
#1561=CARTESIAN_POINT('',(-1.,6.5,-3.));
#1562=VECTOR('',#1563,1.);
#1563=DIRECTION('',(0.,1.,0.));
#1564=CARTESIAN_POINT('',(-0.999999999999997,6.5,-47.));
#1565=CARTESIAN_POINT('',(-0.999999999999997,1.,-47.));
#1566=VECTOR('',#1567,1.);
#1567=DIRECTION('',(0.,1.,0.));
#1568=CARTESIAN_POINT('',(-0.999999999999997,6.5,-47.));
#1569=VECTOR('',#1570,1.);
#1570=DIRECTION('',(-5.55111512312578E-17,-6.05576195250085E-17,1.));
#1571=CARTESIAN_POINT('',(-0.999999999999997,10.,-47.));
#1572=CARTESIAN_POINT('',(-0.999999999999997,6.5,-47.));
#1573=VECTOR('',#1574,1.);
#1574=DIRECTION('',(0.,1.,0.));
#1575=CARTESIAN_POINT('',(-5.,10.,-47.));
#1576=VECTOR('',#1577,1.);
#1577=DIRECTION('',(1.,0.,0.));
#1578=CARTESIAN_POINT('',(-0.999999999999997,10.,-49.));
#1579=CARTESIAN_POINT('',(-0.999999999999997,10.,-47.));
#1580=VECTOR('',#1581,1.);
#1581=DIRECTION('',(-5.55111512312578E-17,0.,-1.));
#1582=CARTESIAN_POINT('',(-0.999999999999997,10.,-49.));
#1583=VECTOR('',#1584,1.);
#1584=DIRECTION('',(-1.,0.,0.));
#1585=CARTESIAN_POINT('',(-0.999999999999997,6.5,-49.));
#1586=CARTESIAN_POINT('',(-0.999999999999997,6.5,-49.));
#1587=VECTOR('',#1588,1.);
#1588=DIRECTION('',(-1.,0.,0.));
#1589=CARTESIAN_POINT('',(-0.999999999999997,6.50000000000001,-49.));
#1590=VECTOR('',#1591,1.);
#1591=DIRECTION('',(0.,1.,0.));
#1592=CARTESIAN_POINT('',(-29.,6.5,-49.));
#1593=CARTESIAN_POINT('',(-28.,6.5,-50.));
#1594=AXIS2_PLACEMENT_3D('',#1595,#1596,#1597);
#1595=CARTESIAN_POINT('',(-28.,6.5,-49.));
#1596=DIRECTION('',(0.,1.,6.21724893790088E-17));
#1597=DIRECTION('',(3.5527136788005E-15,6.21724893790088E-17,-1.));
#1598=CARTESIAN_POINT('',(-29.,6.5,-1.));
#1599=CARTESIAN_POINT('',(-29.,6.5,-49.));
#1600=VECTOR('',#1601,1.);
#1601=DIRECTION('',(-7.40148683083438E-17,-7.40148683083438E-17,1.));
#1602=CARTESIAN_POINT('',(-28.,6.5,-6.35236452384731E-15));
#1603=AXIS2_PLACEMENT_3D('',#1604,#1605,#1606);
#1604=CARTESIAN_POINT('',(-28.,6.5,-1.00000000000001));
#1605=DIRECTION('',(0.,1.,6.21724893790088E-17));
#1606=DIRECTION('',(-1.,0.,0.));
#1607=CARTESIAN_POINT('',(-28.,6.5,-7.64116764390821E-15));
#1608=VECTOR('',#1609,1.);
#1609=DIRECTION('',(1.,0.,1.53123538213184E-16));
#1610=CARTESIAN_POINT('',(-28.,6.5,-1.00000000000001));
#1611=CARTESIAN_POINT('',(-28.,6.5,-1.00000000000001));
#1612=VECTOR('',#1613,1.);
#1613=DIRECTION('',(1.,0.,0.));
#1614=CARTESIAN_POINT('',(-28.,6.5,-3.00000000000001));
#1615=VECTOR('',#1616,1.);
#1616=DIRECTION('',(0.,0.,1.));
#1617=CARTESIAN_POINT('',(-28.,6.5,-49.));
#1618=CARTESIAN_POINT('',(-28.,6.5,-49.));
#1619=VECTOR('',#1620,1.);
#1620=DIRECTION('',(0.,0.,1.));
#1621=CARTESIAN_POINT('',(-24.,6.5,-49.));
#1622=VECTOR('',#1623,1.);
#1623=DIRECTION('',(-1.,0.,0.));
#1624=CARTESIAN_POINT('',(-0.999999999999997,6.5,-47.));
#1625=VECTOR('',#1626,1.);
#1626=DIRECTION('',(-5.55111512312578E-17,0.,-1.));
#1627=CARTESIAN_POINT('',(-1.,6.5,-1.));
#1628=CARTESIAN_POINT('',(-1.,6.5,-1.));
#1629=VECTOR('',#1630,1.);
#1630=DIRECTION('',(-1.11022302462516E-16,0.,-1.));
#1631=CARTESIAN_POINT('',(-2.99999999999999,6.5,-1.));
#1632=VECTOR('',#1633,1.);
#1633=DIRECTION('',(1.,0.,-5.5511151231258E-17));
#1634=CARTESIAN_POINT('',(-11.0920610168467,6.5,5.));
#1635=CARTESIAN_POINT('',(-11.0920610168467,6.5,-1.));
#1636=VECTOR('',#1637,1.);
#1637=DIRECTION('',(-5.9211894646675E-16,2.96059473233375E-16,1.));
#1638=CARTESIAN_POINT('',(-10.5835228985635,6.5,5.));
#1639=CARTESIAN_POINT('',(-10.5835228985635,6.5,5.));
#1640=VECTOR('',#1641,1.);
#1641=DIRECTION('',(-1.,0.,0.));
#1642=CARTESIAN_POINT('',(-10.5835228985635,6.5,0.999999999999998));
#1643=CARTESIAN_POINT('',(-10.5835228985635,6.5,0.999999999999999));
#1644=VECTOR('',#1645,1.);
#1645=DIRECTION('',(-4.44089209850063E-16,0.,1.));
#1646=CARTESIAN_POINT('',(-9.58352289856354,6.5,-1.69680953882173E-15));
#1647=AXIS2_PLACEMENT_3D('',#1648,#1649,#1650);
#1648=CARTESIAN_POINT('',(-9.58352289856354,6.5,1.));
#1649=DIRECTION('',(0.,-1.,-6.21724893790088E-17));
#1650=DIRECTION('',(-1.,0.,0.));
#1651=CARTESIAN_POINT('',(-0.999999999999997,6.5,3.05877110988414E-17));
#1652=CARTESIAN_POINT('',(-9.58352289856354,6.5,-1.26845782991367E-15));
#1653=VECTOR('',#1654,1.);
#1654=DIRECTION('',(1.,0.,1.53123538213184E-16));
#1655=CARTESIAN_POINT('',(1.0197618675784E-15,6.5,-1.));
#1656=AXIS2_PLACEMENT_3D('',#1657,#1658,#1659);
#1657=CARTESIAN_POINT('',(-0.999999999999998,6.5,-1.));
#1658=DIRECTION('',(0.,1.,6.21724893790088E-17));
#1659=DIRECTION('',(1.4432899320127E-15,-6.21724893790088E-17,1.));
#1660=CARTESIAN_POINT('',(2.80834210896418E-15,6.5,-49.));
#1661=CARTESIAN_POINT('',(5.6791447858867E-17,6.5,-1.));
#1662=VECTOR('',#1663,1.);
#1663=DIRECTION('',(5.6791447858867E-17,7.40148683083437E-17,-1.));
#1664=CARTESIAN_POINT('',(-0.999999999999997,6.5,-50.));
#1665=AXIS2_PLACEMENT_3D('',#1666,#1667,#1668);
#1666=CARTESIAN_POINT('',(-0.999999999999997,6.5,-49.));
#1667=DIRECTION('',(0.,1.,6.21724893790088E-17));
#1668=DIRECTION('',(1.,4.41762106923767E-31,-7.105427357601E-15));
#1669=CARTESIAN_POINT('',(-0.999999999999997,6.5,-50.));
#1670=VECTOR('',#1671,1.);
#1671=DIRECTION('',(-1.,0.,0.));
#1672=CARTESIAN_POINT('',(-28.,10.,-49.));
#1673=CARTESIAN_POINT('',(-28.,6.5,-49.));
#1674=VECTOR('',#1675,1.);
#1675=DIRECTION('',(0.,1.,0.));
#1676=CARTESIAN_POINT('',(-24.,10.,-49.));
#1677=VECTOR('',#1678,1.);
#1678=DIRECTION('',(-1.,0.,0.));
#1679=CARTESIAN_POINT('',(-28.,10.,-49.));
#1680=VECTOR('',#1681,1.);
#1681=DIRECTION('',(0.,0.,1.));
#1682=CARTESIAN_POINT('',(-28.,10.,-1.00000000000001));
#1683=CARTESIAN_POINT('',(-28.,6.5,-1.00000000000001));
#1684=VECTOR('',#1685,1.);
#1685=DIRECTION('',(0.,1.,6.34413156928661E-17));
#1686=CARTESIAN_POINT('',(-28.,10.,-3.00000000000001));
#1687=VECTOR('',#1688,1.);
#1688=DIRECTION('',(0.,0.,1.));
#1689=CARTESIAN_POINT('',(-28.,10.,-1.00000000000001));
#1690=VECTOR('',#1691,1.);
#1691=DIRECTION('',(1.,0.,0.));
#1692=CARTESIAN_POINT('',(-28.,3.47150583402347E-31,-7.12672294640806E-15));
#1693=CARTESIAN_POINT('',(-28.,2.6253115132565E-31,-6.39688281675695E-15));
#1694=VECTOR('',#1695,1.);
#1695=DIRECTION('',(0.,1.,6.47768784286886E-17));
#1696=CARTESIAN_POINT('',(-28.,5.15686190103956E-31,-8.5749181399383E-15));
#1697=VECTOR('',#1698,1.);
#1698=DIRECTION('',(1.,-2.8128337642034E-32,3.06247076426368E-16));
#1699=CARTESIAN_POINT('',(-18.0215391588019,-1.30937079267882E-15,-1.12180117013192));
#1700=CARTESIAN_POINT('',(-17.5062241478674,2.97750967175218E-16,-0.0828725772861441));
#1701=AXIS2_PLACEMENT_3D('',#1702,#1703,#1704);
#1702=CARTESIAN_POINT('',(-17.0340112514689,5.9049842367218E-17,-0.964357109467494));
#1703=DIRECTION('',(0.,-1.,-6.12323399573677E-17));
#1704=DIRECTION('',(-0.472212896398467,-5.39753605416895E-17,0.881484532181348));
#1705=CARTESIAN_POINT('',(-23.9451213805879,-2.04946725516386E-15,-1.12435965140677));
#1706=AXIS2_PLACEMENT_3D('',#1707,#1708,#1709);
#1707=CARTESIAN_POINT('',(-20.9831268836673,9.76027920062639E-17,-1.59397455779444));
#1708=DIRECTION('',(-6.01853107621011E-36,1.,6.12323399573677E-17));
#1709=DIRECTION('',(0.987527907333002,-9.64066824687223E-18,0.157444060664421));
#1710=CARTESIAN_POINT('',(-24.5341907816169,-2.07138268456995E-15,-0.0506412819302303));
#1711=AXIS2_PLACEMENT_3D('',#1712,#1713,#1714);
#1712=CARTESIAN_POINT('',(-24.9327849242059,5.92587423228683E-17,-0.96776870464409));
#1713=DIRECTION('',(-6.16297582203915E-33,-1.,-6.12323399573677E-17));
#1714=DIRECTION('',(0.987663543617951,9.58843008641842E-18,-0.156590946762679));
#1715=CARTESIAN_POINT('',(-24.5341907816169,-1.33071718745467E-15,-0.0506412819302309));
#1716=VECTOR('',#1717,1.);
#1717=DIRECTION('',(-0.917127422713859,-1.2203426022012E-17,0.398594142588969));
#1718=CARTESIAN_POINT('',(-29.,4.08215599715785E-17,-1.));
#1719=AXIS2_PLACEMENT_3D('',#1720,#1721,#1722);
#1720=CARTESIAN_POINT('',(-28.,6.12323399573679E-17,-1.));
#1721=DIRECTION('',(-1.09476442525376E-47,-1.,-6.12323399573677E-17));
#1722=DIRECTION('',(0.,-6.12323399573677E-17,1.));
#1723=CARTESIAN_POINT('',(-29.,3.03646459492416E-15,-49.));
#1724=CARTESIAN_POINT('',(-29.,3.00038465791102E-15,-49.));
#1725=VECTOR('',#1726,1.);
#1726=DIRECTION('',(-7.40148683083438E-17,-6.12323399573677E-17,1.));
#1727=CARTESIAN_POINT('',(-28.,3.07728615489573E-15,-50.));
#1728=AXIS2_PLACEMENT_3D('',#1729,#1730,#1731);
#1729=CARTESIAN_POINT('',(-28.,3.00038465791102E-15,-49.));
#1730=DIRECTION('',(0.,-1.,-6.12323399573677E-17));
#1731=DIRECTION('',(-1.,0.,0.));
#1732=CARTESIAN_POINT('',(-0.999999999999997,3.07728615489573E-15,-50.));
#1733=CARTESIAN_POINT('',(-0.999999999999997,3.06161699786838E-15,-50.));
#1734=VECTOR('',#1735,1.);
#1735=DIRECTION('',(-1.,0.,0.));
#1736=CARTESIAN_POINT('',(2.81664043604838E-15,3.03646459492416E-15,-49.));
#1737=AXIS2_PLACEMENT_3D('',#1738,#1739,#1740);
#1738=CARTESIAN_POINT('',(-0.999999999999997,3.00038465791102E-15,-49.));
#1739=DIRECTION('',(0.,-1.,-6.12323399573677E-17));
#1740=DIRECTION('',(1.11022302462516E-16,6.12323399573677E-17,-1.));
#1741=CARTESIAN_POINT('',(7.04734928697422E-16,4.08215599715784E-17,-1.));
#1742=CARTESIAN_POINT('',(5.67914478588671E-17,6.12323399573677E-17,-1.));
#1743=VECTOR('',#1744,1.);
#1744=DIRECTION('',(5.6791447858867E-17,6.12323399573677E-17,-1.));
#1745=CARTESIAN_POINT('',(-0.999999999999998,-5.59818793221872E-32,-5.88914420979054E-16));
#1746=AXIS2_PLACEMENT_3D('',#1747,#1748,#1749);
#1747=CARTESIAN_POINT('',(-0.999999999999998,6.12323399573677E-17,-1.));
#1748=DIRECTION('',(0.,-1.,-6.12323399573677E-17));
#1749=DIRECTION('',(1.,1.35963107344689E-32,-2.22044604925032E-16));
#1750=CARTESIAN_POINT('',(-17.1076300052784,7.40148683083438E-16,-5.27366896123779E-15));
#1751=CARTESIAN_POINT('',(-17.1076300052784,2.09301929170468E-31,-5.23916167370053E-15));
#1752=VECTOR('',#1753,1.);
#1753=DIRECTION('',(1.,-2.8128337642034E-32,3.06247076426368E-16));
#1754=AXIS2_PLACEMENT_3D('',#1755,#1756,#1757);
#1755=CARTESIAN_POINT('',(-17.1076300052784,6.1232339957368E-17,-1.00000000000001));
#1756=DIRECTION('',(0.,-1.,-6.12323399573677E-17));
#1757=DIRECTION('',(7.105427357601E-15,-6.12323399573677E-17,1.));
#1758=CARTESIAN_POINT('',(-24.5341907816169,6.5,-0.0506412819302309));
#1759=CARTESIAN_POINT('',(-24.5341907816169,6.5,-0.0506412819302301));
#1760=VECTOR('',#1761,1.);
#1761=DIRECTION('',(0.,-1.,-5.55111512312578E-17));
#1762=CARTESIAN_POINT('',(-24.5341907816169,6.5,-0.0506412819302315));
#1763=VECTOR('',#1764,1.);
#1764=DIRECTION('',(-0.917127422713856,-6.99079292965249E-15,0.398594142588975));
#1765=CARTESIAN_POINT('',(-17.5062241478674,6.5,-0.0828725772861439));
#1766=CARTESIAN_POINT('',(-18.0215391588019,6.5,-1.12180117013192));
#1767=AXIS2_PLACEMENT_3D('',#1768,#1769,#1770);
#1768=CARTESIAN_POINT('',(-17.0340112514689,6.5,-0.964357109467493));
#1769=DIRECTION('',(0.,1.,6.21724893790088E-17));
#1770=DIRECTION('',(-0.987527907333001,9.78868918944691E-18,-0.157444060664424));
#1771=CARTESIAN_POINT('',(-17.3682748881487,6.5,-0.0229182399317496));
#1772=CARTESIAN_POINT('',(-17.3682748881487,6.5,-0.0229182399317531));
#1773=VECTOR('',#1774,1.);
#1774=DIRECTION('',(-0.917127422713866,0.,-0.398594142588953));
#1775=CARTESIAN_POINT('',(-17.2766018221445,6.5,0.011689307158498));
#1776=CARTESIAN_POINT('',(-17.3682748881487,6.5,-0.0229182399317551));
#1777=CARTESIAN_POINT('',(-17.3232871549195,6.5,-0.00336605284257274));
#1778=CARTESIAN_POINT('',(-17.2766018221446,6.5,0.0116893071584983));
#1779=CARTESIAN_POINT('',(-16.5835228985635,6.5,0.963424277088746));
#1780=CARTESIAN_POINT('',(-17.2766018221446,6.5,0.0116893071585027));
#1781=CARTESIAN_POINT('',(-16.5835228985635,6.5,0.235197464505617));
#1782=CARTESIAN_POINT('',(-16.5835228985635,6.5,0.963424277088748));
#1783=CARTESIAN_POINT('',(-16.5835228985635,6.5,4.99999999999999));
#1784=CARTESIAN_POINT('',(-16.5835228985635,6.5,0.963424277088746));
#1785=VECTOR('',#1786,1.);
#1786=DIRECTION('',(0.,0.,1.));
#1787=CARTESIAN_POINT('',(-16.0749847802804,6.5,4.99999999999999));
#1788=CARTESIAN_POINT('',(-16.0749847802804,6.5,4.99999999999999));
#1789=VECTOR('',#1790,1.);
#1790=DIRECTION('',(-1.,0.,0.));
#1791=CARTESIAN_POINT('',(-16.0749847802804,6.5,-0.999999999999999));
#1792=VECTOR('',#1793,1.);
#1793=DIRECTION('',(0.,1.48029736616688E-16,1.));
#1794=CARTESIAN_POINT('',(-23.9451213805879,6.5,-1.12435965140677));
#1795=AXIS2_PLACEMENT_3D('',#1796,#1797,#1798);
#1796=CARTESIAN_POINT('',(-24.9327849242059,6.5,-0.967768704644087));
#1797=DIRECTION('',(0.,1.,6.21724893790088E-17));
#1798=DIRECTION('',(0.398594142588968,-5.70200949478751E-17,0.917127422713859));
#1799=AXIS2_PLACEMENT_3D('',#1800,#1801,#1802);
#1800=CARTESIAN_POINT('',(-20.9831268836673,6.5,-1.59397455779444));
#1801=DIRECTION('',(6.01853107621011E-36,1.,6.21724893790088E-17));
#1802=DIRECTION('',(0.987527907333002,-9.78868918944671E-18,0.157444060664421));
#1803=AXIS2_PLACEMENT_3D('',#1804,#1805,#1806);
#1804=CARTESIAN_POINT('',(-13.5835228985635,6.5,5.));
#1805=DIRECTION('',(3.06247076426368E-16,6.12323399573676E-17,-1.));
#1806=DIRECTION('',(1.,-7.12977731040454E-16,3.06247076426368E-16));
#1807=CARTESIAN_POINT('',(-1.,10.,-1.));
#1808=CARTESIAN_POINT('',(-1.,6.5,-1.));
#1809=VECTOR('',#1810,1.);
#1810=DIRECTION('',(0.,1.,6.34413156928661E-17));
#1811=CARTESIAN_POINT('',(-2.99999999999999,10.,-1.));
#1812=VECTOR('',#1813,1.);
#1813=DIRECTION('',(1.,0.,-1.11022302462516E-16));
#1814=CARTESIAN_POINT('',(-1.,10.,-1.));
#1815=VECTOR('',#1816,1.);
#1816=DIRECTION('',(-1.11022302462516E-16,0.,-1.));
#1817=AXIS2_PLACEMENT_3D('',#1818,#1819,#1820);
#1818=CARTESIAN_POINT('',(-13.5835228985635,6.5,5.));
#1819=DIRECTION('',(-3.06247076426368E-16,-6.12323399573676E-17,1.));
#1820=DIRECTION('',(-1.,6.23810782064109E-34,-3.06247076426368E-16));
#1821=CARTESIAN_POINT('',(-16.3825373639106,5.42040840000591,0.999999999999995));
#1822=CARTESIAN_POINT('',(-16.5835228985635,6.5,0.963424277088745));
#1823=CARTESIAN_POINT('',(-16.5835228985635,6.38004537777336,0.963424277088745));
#1824=CARTESIAN_POINT('',(-16.569181855487,6.14012603345633,0.969055261941688));
#1825=CARTESIAN_POINT('',(-16.5037453100499,5.78030761625817,0.989142504072073));
#1826=CARTESIAN_POINT('',(-16.4287751472698,5.54028727315447,0.999999999999995));
#1827=CARTESIAN_POINT('',(-16.3825373639106,5.42040840000591,0.999999999999995));
#1828=AXIS2_PLACEMENT_3D('',#1829,#1830,#1831);
#1829=CARTESIAN_POINT('',(-13.5835228985635,6.5,0.999999999999996));
#1830=DIRECTION('',(-3.06247076426368E-16,-6.12323399573676E-17,1.));
#1831=DIRECTION('',(-0.933004821782359,-0.359863866664699,-3.07765305584538E-16));
#1832=CARTESIAN_POINT('',(-0.999999999999997,9.37611254734457E-33,-2.64145840675698E-16));
#1833=VECTOR('',#1834,1.);
#1834=DIRECTION('',(0.,1.,4.76965242036862E-17));
#1835=CARTESIAN_POINT('',(-17.1076300052784,4.60773440014315,-4.93074638549807E-15));
#1836=AXIS2_PLACEMENT_3D('',#1837,#1838,#1839);
#1837=CARTESIAN_POINT('',(-13.5835228985635,6.5,-3.76190396553282E-15));
#1838=DIRECTION('',(-3.06247076426368E-16,-6.12323399573676E-17,1.));
#1839=DIRECTION('',(-0.881026776678723,-0.473066399964213,-2.98778837236222E-16));
#1840=CARTESIAN_POINT('',(-17.1076300052784,4.60773440014315,-4.97651146264545E-15));
#1841=VECTOR('',#1842,1.);
#1842=DIRECTION('',(0.,-1.,-6.67583255874356E-17));
#1843=CARTESIAN_POINT('',(2.83468040455495E-15,3.05450456343073E-15,-49.));
#1844=VECTOR('',#1845,1.);
#1845=DIRECTION('',(0.,1.,0.));
#1846=CARTESIAN_POINT('',(1.02759644609207E-15,3.06161699786838E-17,-1.));
#1847=VECTOR('',#1848,1.);
#1848=DIRECTION('',(0.,1.,6.83214169000096E-17));
#1849=CARTESIAN_POINT('',(-28.,3.08512073340941E-15,-50.));
#1850=VECTOR('',#1851,1.);
#1851=DIRECTION('',(0.,1.,0.));
#1852=CARTESIAN_POINT('',(-0.999999999999997,3.08512073340941E-15,-50.));
#1853=VECTOR('',#1854,1.);
#1854=DIRECTION('',(0.,1.,0.));
#1855=CARTESIAN_POINT('',(-29.,3.05450456343073E-15,-49.));
#1856=VECTOR('',#1857,1.);
#1857=DIRECTION('',(0.,1.,0.));
#1858=CARTESIAN_POINT('',(-29.,3.06161699786838E-17,-1.));
#1859=VECTOR('',#1860,1.);
#1860=DIRECTION('',(0.,1.,6.83214169000096E-17));
#1861=CARTESIAN_POINT('',(-17.5062241478674,4.60773440014315,-0.0828725772861443));
#1862=CARTESIAN_POINT('',(-17.5062241478674,6.5,-0.0828725772861445));
#1863=VECTOR('',#1864,1.);
#1864=DIRECTION('',(0.,-1.,0.));
#1865=CARTESIAN_POINT('',(-17.46503667659,5.15662331211027,-0.0649720278176232));
#1866=CARTESIAN_POINT('',(-17.4650366765864,5.15662331213286,-0.064972027816083));
#1867=CARTESIAN_POINT('',(-17.4744715434041,5.09649161181656,-0.0690725296182058));
#1868=CARTESIAN_POINT('',(-17.4898327740766,4.97547005276658,-0.0757486974193103));
#1869=CARTESIAN_POINT('',(-17.5032982307894,4.79225520923931,-0.0816009400194772));
#1870=CARTESIAN_POINT('',(-17.5062241478674,4.66931633800812,-0.082872577286145));
#1871=CARTESIAN_POINT('',(-17.5062241478674,4.60773440014315,-0.0828725772861451));
#1872=CARTESIAN_POINT('',(-17.3682748881487,6.5,-0.0229182399317454));
#1873=CARTESIAN_POINT('',(-17.3682748881487,6.34772303726488,-0.022918239931745));
#1874=CARTESIAN_POINT('',(-17.3753215712881,6.04147030758156,-0.0259808095970834));
#1875=CARTESIAN_POINT('',(-17.4073148312485,5.58815415476849,-0.0398854489162271));
#1876=CARTESIAN_POINT('',(-17.4429677572068,5.29727624049083,-0.0553806212349237));
#1877=CARTESIAN_POINT('',(-17.4650366765935,5.15662331208768,-0.0649720278191583));
#1878=CARTESIAN_POINT('',(-18.0215391588019,6.5,-1.12180117013192));
#1879=VECTOR('',#1880,1.);
#1880=DIRECTION('',(0.,-1.,-6.83214169000096E-17));
#1881=CARTESIAN_POINT('',(-23.9451213805879,6.5,-1.12435965140677));
#1882=VECTOR('',#1883,1.);
#1883=DIRECTION('',(0.,-1.,-6.83214169000096E-17));
#1884=CARTESIAN_POINT('',(-17.1909923598314,5.10858392273764,0.00895027473679769));
#1885=CARTESIAN_POINT('',(-17.2766018221445,6.49999999999999,0.0116893071584979));
#1886=CARTESIAN_POINT('',(-17.2766018221445,6.34573552652857,0.0116893071584979));
#1887=CARTESIAN_POINT('',(-17.2710898434032,6.03659105384986,0.0128191011866663));
#1888=CARTESIAN_POINT('',(-17.2447978110176,5.57227392107117,0.0156917047659994));
#1889=CARTESIAN_POINT('',(-17.2125982084195,5.26286284423633,0.0137133662172174));
#1890=CARTESIAN_POINT('',(-17.1909923598488,5.10858392271444,0.00895027473348657));
#1891=AXIS2_PLACEMENT_3D('',#1892,#1893,#1894);
#1892=CARTESIAN_POINT('',(-17.315542185693,5.06054453334121,0.999999999999994));
#1893=DIRECTION('',(0.359863866664698,-0.93300482178236,1.49300907684186E-16));
#1894=DIRECTION('',(0.124549825919957,0.0480393894024545,-0.991049725255574));
#1895=CARTESIAN_POINT('',(-17.1909923598529,5.10858392275683,0.00895027473502585));
#1896=CARTESIAN_POINT('',(-17.185546561205,5.05215963380004,0.00689960556837018));
#1897=CARTESIAN_POINT('',(-17.171904345807,4.93970466195051,0.00356213512402274));
#1898=CARTESIAN_POINT('',(-17.1438808376657,4.77256623150177,0.000635762864582866));
#1899=CARTESIAN_POINT('',(-17.1204618593952,4.66241988521743,-4.89278256684677E-15));
#1900=CARTESIAN_POINT('',(-17.1076300052784,4.60773440014315,-4.88498130835069E-15));
#1901=AXIS2_PLACEMENT_3D('',#1902,#1903,#1904);
#1902=CARTESIAN_POINT('',(-17.1076300052784,4.60773440014315,-0.999999999999982));
#1903=DIRECTION('',(0.,-1.,0.));
#1904=DIRECTION('',(3.55271367880058E-15,0.,1.));
#1905=CARTESIAN_POINT('',(-17.5062241478674,4.60773440014315,-0.0828725772861447));
#1906=VECTOR('',#1907,1.);
#1907=DIRECTION('',(0.,-1.,0.));
#1908=AXIS2_PLACEMENT_3D('',#1909,#1910,#1911);
#1909=CARTESIAN_POINT('',(-17.0664425339974,5.15662331213288,-0.982099450530042));
#1910=DIRECTION('',(-0.154656394484072,-0.985679198750162,-0.0672154505781609));
#1911=DIRECTION('',(-0.124549825855402,-0.0480393893760498,0.991049725264966));
ENDSEC;
END-ISO-10303-21;
